ISO-10303-21;
HEADER;
/* Generated by software containing ST-Developer
 * from STEP Tools, Inc. (www.steptools.com) 
 */

FILE_DESCRIPTION(
/* description */ (''),
/* implementation_level */ '2;1');

FILE_NAME(
/* name */ 'Dasai Mochi Top.step',
/* time_stamp */ '2026-02-04T13:51:02+07:00',
/* author */ (''),
/* organization */ (''),
/* preprocessor_version */ 'ST-DEVELOPER v20.1',
/* originating_system */ 'Autodesk Translation Framework v14.24.0.0',
/* authorisation */ '');

FILE_SCHEMA (('AUTOMOTIVE_DESIGN { 1 0 10303 214 3 1 1 }'));
ENDSEC;

DATA;
#10=MECHANICAL_DESIGN_GEOMETRIC_PRESENTATION_REPRESENTATION('',(#13),#1724);
#11=SHAPE_REPRESENTATION_RELATIONSHIP('SRR','None',#1730,#12);
#12=ADVANCED_BREP_SHAPE_REPRESENTATION('',(#14),#1723);
#13=STYLED_ITEM('',(#1739),#14);
#14=MANIFOLD_SOLID_BREP('Body1',#1028);
#15=SPHERICAL_SURFACE('',#1091,5.);
#16=SPHERICAL_SURFACE('',#1106,5.);
#17=SPHERICAL_SURFACE('',#1108,5.);
#18=SPHERICAL_SURFACE('',#1114,5.);
#19=ELLIPSE('',#1047,2.82842712474619,2.);
#20=ELLIPSE('',#1048,2.82842712474619,2.);
#21=ELLIPSE('',#1050,2.82842712474619,2.);
#22=ELLIPSE('',#1052,2.82842712474619,2.);
#23=CYLINDRICAL_SURFACE('',#1046,2.);
#24=CYLINDRICAL_SURFACE('',#1049,2.);
#25=CYLINDRICAL_SURFACE('',#1051,2.);
#26=CYLINDRICAL_SURFACE('',#1053,2.);
#27=CYLINDRICAL_SURFACE('',#1059,3.);
#28=CYLINDRICAL_SURFACE('',#1064,3.);
#29=CYLINDRICAL_SURFACE('',#1069,3.);
#30=CYLINDRICAL_SURFACE('',#1074,3.);
#31=CYLINDRICAL_SURFACE('',#1079,1.7);
#32=CYLINDRICAL_SURFACE('',#1080,1.70000000000001);
#33=CYLINDRICAL_SURFACE('',#1083,1.7);
#34=CYLINDRICAL_SURFACE('',#1086,1.7);
#35=CYLINDRICAL_SURFACE('',#1095,5.);
#36=CYLINDRICAL_SURFACE('',#1102,5.);
#37=CYLINDRICAL_SURFACE('',#1104,5.);
#38=CYLINDRICAL_SURFACE('',#1112,5.);
#39=CYLINDRICAL_SURFACE('',#1113,5.);
#40=CYLINDRICAL_SURFACE('',#1118,5.);
#41=CYLINDRICAL_SURFACE('',#1119,5.);
#42=CYLINDRICAL_SURFACE('',#1120,5.);
#43=CYLINDRICAL_SURFACE('',#1123,2.5);
#44=CIRCLE('',#1032,1.7);
#45=CIRCLE('',#1038,1.7);
#46=CIRCLE('',#1039,1.7);
#47=CIRCLE('',#1060,3.);
#48=CIRCLE('',#1061,3.);
#49=CIRCLE('',#1063,1.7);
#50=CIRCLE('',#1065,3.);
#51=CIRCLE('',#1066,3.);
#52=CIRCLE('',#1068,1.7);
#53=CIRCLE('',#1070,3.);
#54=CIRCLE('',#1071,3.);
#55=CIRCLE('',#1073,1.70000000000001);
#56=CIRCLE('',#1075,3.);
#57=CIRCLE('',#1076,3.);
#58=CIRCLE('',#1078,1.7);
#59=CIRCLE('',#1081,1.70000000000001);
#60=CIRCLE('',#1084,1.7);
#61=CIRCLE('',#1087,1.7);
#62=CIRCLE('',#1092,5.);
#63=CIRCLE('',#1093,5.);
#64=CIRCLE('',#1094,5.);
#65=CIRCLE('',#1096,5.);
#66=CIRCLE('',#1098,5.);
#67=CIRCLE('',#1099,5.);
#68=CIRCLE('',#1100,5.);
#69=CIRCLE('',#1103,5.);
#70=CIRCLE('',#1105,5.);
#71=CIRCLE('',#1107,5.);
#72=CIRCLE('',#1109,5.);
#73=CIRCLE('',#1110,5.);
#74=CIRCLE('',#1111,5.);
#75=CIRCLE('',#1115,5.);
#76=CIRCLE('',#1116,5.);
#77=CIRCLE('',#1117,5.);
#78=CIRCLE('',#1122,2.5);
#79=CIRCLE('',#1124,2.5);
#80=FACE_BOUND('',#160,.T.);
#81=FACE_BOUND('',#166,.T.);
#82=FACE_BOUND('',#181,.T.);
#83=FACE_BOUND('',#186,.T.);
#84=FACE_BOUND('',#189,.T.);
#85=FACE_BOUND('',#192,.T.);
#86=FACE_BOUND('',#195,.T.);
#87=FACE_BOUND('',#208,.T.);
#88=FACE_BOUND('',#209,.T.);
#89=FACE_BOUND('',#210,.T.);
#90=FACE_BOUND('',#211,.T.);
#91=FACE_BOUND('',#212,.T.);
#92=FACE_BOUND('',#214,.T.);
#93=FACE_BOUND('',#226,.T.);
#94=FACE_BOUND('',#230,.T.);
#95=FACE_BOUND('',#233,.T.);
#96=FACE_BOUND('',#235,.T.);
#97=FACE_OUTER_BOUND('',#159,.T.);
#98=FACE_OUTER_BOUND('',#161,.T.);
#99=FACE_OUTER_BOUND('',#162,.T.);
#100=FACE_OUTER_BOUND('',#163,.T.);
#101=FACE_OUTER_BOUND('',#164,.T.);
#102=FACE_OUTER_BOUND('',#165,.T.);
#103=FACE_OUTER_BOUND('',#167,.T.);
#104=FACE_OUTER_BOUND('',#168,.T.);
#105=FACE_OUTER_BOUND('',#169,.T.);
#106=FACE_OUTER_BOUND('',#170,.T.);
#107=FACE_OUTER_BOUND('',#171,.T.);
#108=FACE_OUTER_BOUND('',#172,.T.);
#109=FACE_OUTER_BOUND('',#173,.T.);
#110=FACE_OUTER_BOUND('',#174,.T.);
#111=FACE_OUTER_BOUND('',#175,.T.);
#112=FACE_OUTER_BOUND('',#176,.T.);
#113=FACE_OUTER_BOUND('',#177,.T.);
#114=FACE_OUTER_BOUND('',#178,.T.);
#115=FACE_OUTER_BOUND('',#179,.T.);
#116=FACE_OUTER_BOUND('',#180,.T.);
#117=FACE_OUTER_BOUND('',#182,.T.);
#118=FACE_OUTER_BOUND('',#183,.T.);
#119=FACE_OUTER_BOUND('',#184,.T.);
#120=FACE_OUTER_BOUND('',#185,.T.);
#121=FACE_OUTER_BOUND('',#187,.T.);
#122=FACE_OUTER_BOUND('',#188,.T.);
#123=FACE_OUTER_BOUND('',#190,.T.);
#124=FACE_OUTER_BOUND('',#191,.T.);
#125=FACE_OUTER_BOUND('',#193,.T.);
#126=FACE_OUTER_BOUND('',#194,.T.);
#127=FACE_OUTER_BOUND('',#196,.T.);
#128=FACE_OUTER_BOUND('',#197,.T.);
#129=FACE_OUTER_BOUND('',#198,.T.);
#130=FACE_OUTER_BOUND('',#199,.T.);
#131=FACE_OUTER_BOUND('',#200,.T.);
#132=FACE_OUTER_BOUND('',#201,.T.);
#133=FACE_OUTER_BOUND('',#202,.T.);
#134=FACE_OUTER_BOUND('',#203,.T.);
#135=FACE_OUTER_BOUND('',#204,.T.);
#136=FACE_OUTER_BOUND('',#205,.T.);
#137=FACE_OUTER_BOUND('',#206,.T.);
#138=FACE_OUTER_BOUND('',#207,.T.);
#139=FACE_OUTER_BOUND('',#213,.T.);
#140=FACE_OUTER_BOUND('',#215,.T.);
#141=FACE_OUTER_BOUND('',#216,.T.);
#142=FACE_OUTER_BOUND('',#217,.T.);
#143=FACE_OUTER_BOUND('',#218,.T.);
#144=FACE_OUTER_BOUND('',#219,.T.);
#145=FACE_OUTER_BOUND('',#220,.T.);
#146=FACE_OUTER_BOUND('',#221,.T.);
#147=FACE_OUTER_BOUND('',#222,.T.);
#148=FACE_OUTER_BOUND('',#223,.T.);
#149=FACE_OUTER_BOUND('',#224,.T.);
#150=FACE_OUTER_BOUND('',#225,.T.);
#151=FACE_OUTER_BOUND('',#227,.T.);
#152=FACE_OUTER_BOUND('',#228,.T.);
#153=FACE_OUTER_BOUND('',#229,.T.);
#154=FACE_OUTER_BOUND('',#231,.T.);
#155=FACE_OUTER_BOUND('',#232,.T.);
#156=FACE_OUTER_BOUND('',#234,.T.);
#157=FACE_OUTER_BOUND('',#236,.T.);
#158=FACE_OUTER_BOUND('',#237,.T.);
#159=EDGE_LOOP('',(#655,#656,#657,#658,#659,#660));
#160=EDGE_LOOP('',(#661,#662,#663,#664));
#161=EDGE_LOOP('',(#665,#666,#667,#668,#669));
#162=EDGE_LOOP('',(#670,#671,#672,#673,#674,#675));
#163=EDGE_LOOP('',(#676,#677,#678,#679));
#164=EDGE_LOOP('',(#680,#681,#682,#683));
#165=EDGE_LOOP('',(#684,#685,#686,#687));
#166=EDGE_LOOP('',(#688,#689,#690,#691));
#167=EDGE_LOOP('',(#692,#693,#694,#695));
#168=EDGE_LOOP('',(#696,#697,#698,#699));
#169=EDGE_LOOP('',(#700,#701,#702,#703));
#170=EDGE_LOOP('',(#704,#705,#706,#707));
#171=EDGE_LOOP('',(#708,#709,#710,#711));
#172=EDGE_LOOP('',(#712,#713,#714,#715));
#173=EDGE_LOOP('',(#716,#717,#718,#719));
#174=EDGE_LOOP('',(#720,#721,#722,#723));
#175=EDGE_LOOP('',(#724,#725,#726,#727));
#176=EDGE_LOOP('',(#728,#729,#730,#731));
#177=EDGE_LOOP('',(#732,#733,#734,#735));
#178=EDGE_LOOP('',(#736,#737,#738,#739));
#179=EDGE_LOOP('',(#740,#741,#742,#743));
#180=EDGE_LOOP('',(#744,#745,#746,#747));
#181=EDGE_LOOP('',(#748,#749,#750,#751));
#182=EDGE_LOOP('',(#752,#753,#754,#755));
#183=EDGE_LOOP('',(#756,#757,#758,#759));
#184=EDGE_LOOP('',(#760,#761,#762,#763));
#185=EDGE_LOOP('',(#764));
#186=EDGE_LOOP('',(#765));
#187=EDGE_LOOP('',(#766,#767,#768,#769));
#188=EDGE_LOOP('',(#770));
#189=EDGE_LOOP('',(#771));
#190=EDGE_LOOP('',(#772,#773,#774,#775));
#191=EDGE_LOOP('',(#776));
#192=EDGE_LOOP('',(#777));
#193=EDGE_LOOP('',(#778,#779,#780,#781));
#194=EDGE_LOOP('',(#782));
#195=EDGE_LOOP('',(#783));
#196=EDGE_LOOP('',(#784,#785,#786,#787,#788,#789,#790,#791));
#197=EDGE_LOOP('',(#792,#793,#794,#795));
#198=EDGE_LOOP('',(#796));
#199=EDGE_LOOP('',(#797,#798,#799,#800));
#200=EDGE_LOOP('',(#801));
#201=EDGE_LOOP('',(#802,#803,#804,#805));
#202=EDGE_LOOP('',(#806));
#203=EDGE_LOOP('',(#807,#808,#809,#810));
#204=EDGE_LOOP('',(#811,#812,#813,#814));
#205=EDGE_LOOP('',(#815,#816,#817));
#206=EDGE_LOOP('',(#818,#819,#820,#821));
#207=EDGE_LOOP('',(#822,#823,#824,#825,#826,#827,#828,#829));
#208=EDGE_LOOP('',(#830));
#209=EDGE_LOOP('',(#831));
#210=EDGE_LOOP('',(#832));
#211=EDGE_LOOP('',(#833));
#212=EDGE_LOOP('',(#834,#835,#836,#837));
#213=EDGE_LOOP('',(#838,#839,#840,#841));
#214=EDGE_LOOP('',(#842,#843,#844,#845));
#215=EDGE_LOOP('',(#846,#847,#848,#849));
#216=EDGE_LOOP('',(#850,#851,#852,#853));
#217=EDGE_LOOP('',(#854,#855,#856));
#218=EDGE_LOOP('',(#857,#858,#859));
#219=EDGE_LOOP('',(#860,#861,#862,#863));
#220=EDGE_LOOP('',(#864,#865,#866,#867));
#221=EDGE_LOOP('',(#868,#869,#870));
#222=EDGE_LOOP('',(#871,#872,#873,#874));
#223=EDGE_LOOP('',(#875,#876,#877,#878));
#224=EDGE_LOOP('',(#879,#880,#881,#882));
#225=EDGE_LOOP('',(#883,#884,#885,#886));
#226=EDGE_LOOP('',(#887));
#227=EDGE_LOOP('',(#888,#889,#890,#891));
#228=EDGE_LOOP('',(#892,#893,#894,#895));
#229=EDGE_LOOP('',(#896,#897,#898,#899));
#230=EDGE_LOOP('',(#900,#901,#902,#903));
#231=EDGE_LOOP('',(#904,#905,#906,#907));
#232=EDGE_LOOP('',(#908,#909,#910,#911));
#233=EDGE_LOOP('',(#912,#913,#914,#915));
#234=EDGE_LOOP('',(#916,#917,#918,#919));
#235=EDGE_LOOP('',(#920));
#236=EDGE_LOOP('',(#921,#922,#923,#924));
#237=EDGE_LOOP('',(#925,#926,#927,#928));
#238=LINE('',#1439,#335);
#239=LINE('',#1441,#336);
#240=LINE('',#1443,#337);
#241=LINE('',#1445,#338);
#242=LINE('',#1447,#339);
#243=LINE('',#1448,#340);
#244=LINE('',#1451,#341);
#245=LINE('',#1453,#342);
#246=LINE('',#1455,#343);
#247=LINE('',#1456,#344);
#248=LINE('',#1461,#345);
#249=LINE('',#1463,#346);
#250=LINE('',#1464,#347);
#251=LINE('',#1467,#348);
#252=LINE('',#1468,#349);
#253=LINE('',#1470,#350);
#254=LINE('',#1471,#351);
#255=LINE('',#1474,#352);
#256=LINE('',#1475,#353);
#257=LINE('',#1477,#354);
#258=LINE('',#1481,#355);
#259=LINE('',#1483,#356);
#260=LINE('',#1485,#357);
#261=LINE('',#1486,#358);
#262=LINE('',#1493,#359);
#263=LINE('',#1495,#360);
#264=LINE('',#1496,#361);
#265=LINE('',#1499,#362);
#266=LINE('',#1501,#363);
#267=LINE('',#1502,#364);
#268=LINE('',#1505,#365);
#269=LINE('',#1506,#366);
#270=LINE('',#1509,#367);
#271=LINE('',#1510,#368);
#272=LINE('',#1513,#369);
#273=LINE('',#1514,#370);
#274=LINE('',#1516,#371);
#275=LINE('',#1520,#372);
#276=LINE('',#1524,#373);
#277=LINE('',#1528,#374);
#278=LINE('',#1531,#375);
#279=LINE('',#1534,#376);
#280=LINE('',#1536,#377);
#281=LINE('',#1539,#378);
#282=LINE('',#1540,#379);
#283=LINE('',#1543,#380);
#284=LINE('',#1545,#381);
#285=LINE('',#1546,#382);
#286=LINE('',#1549,#383);
#287=LINE('',#1550,#384);
#288=LINE('',#1554,#385);
#289=LINE('',#1556,#386);
#290=LINE('',#1558,#387);
#291=LINE('',#1559,#388);
#292=LINE('',#1562,#389);
#293=LINE('',#1563,#390);
#294=LINE('',#1565,#391);
#295=LINE('',#1570,#392);
#296=LINE('',#1579,#393);
#297=LINE('',#1588,#394);
#298=LINE('',#1597,#395);
#299=LINE('',#1603,#396);
#300=LINE('',#1606,#397);
#301=LINE('',#1611,#398);
#302=LINE('',#1616,#399);
#303=LINE('',#1621,#400);
#304=LINE('',#1622,#401);
#305=LINE('',#1624,#402);
#306=LINE('',#1636,#403);
#307=LINE('',#1637,#404);
#308=LINE('',#1640,#405);
#309=LINE('',#1644,#406);
#310=LINE('',#1648,#407);
#311=LINE('',#1651,#408);
#312=LINE('',#1653,#409);
#313=LINE('',#1655,#410);
#314=LINE('',#1656,#411);
#315=LINE('',#1659,#412);
#316=LINE('',#1660,#413);
#317=LINE('',#1663,#414);
#318=LINE('',#1668,#415);
#319=LINE('',#1678,#416);
#320=LINE('',#1679,#417);
#321=LINE('',#1681,#418);
#322=LINE('',#1689,#419);
#323=LINE('',#1690,#420);
#324=LINE('',#1692,#421);
#325=LINE('',#1694,#422);
#326=LINE('',#1700,#423);
#327=LINE('',#1704,#424);
#328=LINE('',#1706,#425);
#329=LINE('',#1707,#426);
#330=LINE('',#1710,#427);
#331=LINE('',#1711,#428);
#332=LINE('',#1714,#429);
#333=LINE('',#1715,#430);
#334=LINE('',#1717,#431);
#335=VECTOR('',#1136,10.);
#336=VECTOR('',#1137,10.);
#337=VECTOR('',#1138,10.);
#338=VECTOR('',#1139,10.);
#339=VECTOR('',#1140,10.);
#340=VECTOR('',#1141,10.);
#341=VECTOR('',#1142,10.);
#342=VECTOR('',#1143,10.);
#343=VECTOR('',#1144,10.);
#344=VECTOR('',#1145,10.);
#345=VECTOR('',#1150,10.);
#346=VECTOR('',#1151,10.);
#347=VECTOR('',#1152,10.);
#348=VECTOR('',#1155,10.);
#349=VECTOR('',#1156,10.);
#350=VECTOR('',#1157,10.);
#351=VECTOR('',#1158,10.);
#352=VECTOR('',#1161,10.);
#353=VECTOR('',#1162,10.);
#354=VECTOR('',#1165,10.);
#355=VECTOR('',#1168,10.);
#356=VECTOR('',#1169,10.);
#357=VECTOR('',#1170,10.);
#358=VECTOR('',#1171,10.);
#359=VECTOR('',#1180,10.);
#360=VECTOR('',#1181,10.);
#361=VECTOR('',#1182,10.);
#362=VECTOR('',#1185,10.);
#363=VECTOR('',#1186,10.);
#364=VECTOR('',#1187,10.);
#365=VECTOR('',#1190,10.);
#366=VECTOR('',#1191,10.);
#367=VECTOR('',#1194,10.);
#368=VECTOR('',#1195,10.);
#369=VECTOR('',#1198,10.);
#370=VECTOR('',#1199,10.);
#371=VECTOR('',#1202,10.);
#372=VECTOR('',#1205,10.);
#373=VECTOR('',#1208,10.);
#374=VECTOR('',#1213,10.);
#375=VECTOR('',#1216,10.);
#376=VECTOR('',#1219,10.);
#377=VECTOR('',#1220,10.);
#378=VECTOR('',#1225,10.);
#379=VECTOR('',#1226,10.);
#380=VECTOR('',#1229,10.);
#381=VECTOR('',#1230,10.);
#382=VECTOR('',#1231,10.);
#383=VECTOR('',#1234,10.);
#384=VECTOR('',#1235,10.);
#385=VECTOR('',#1238,10.);
#386=VECTOR('',#1239,10.);
#387=VECTOR('',#1240,10.);
#388=VECTOR('',#1241,10.);
#389=VECTOR('',#1244,10.);
#390=VECTOR('',#1245,10.);
#391=VECTOR('',#1248,10.);
#392=VECTOR('',#1253,3.);
#393=VECTOR('',#1264,3.);
#394=VECTOR('',#1275,3.);
#395=VECTOR('',#1286,3.);
#396=VECTOR('',#1295,1.7);
#397=VECTOR('',#1298,1.70000000000001);
#398=VECTOR('',#1305,1.7);
#399=VECTOR('',#1312,1.7);
#400=VECTOR('',#1319,10.);
#401=VECTOR('',#1320,10.);
#402=VECTOR('',#1323,10.);
#403=VECTOR('',#1336,10.);
#404=VECTOR('',#1337,10.);
#405=VECTOR('',#1340,10.);
#406=VECTOR('',#1343,10.);
#407=VECTOR('',#1348,10.);
#408=VECTOR('',#1349,10.);
#409=VECTOR('',#1350,10.);
#410=VECTOR('',#1351,10.);
#411=VECTOR('',#1352,10.);
#412=VECTOR('',#1355,10.);
#413=VECTOR('',#1356,10.);
#414=VECTOR('',#1359,10.);
#415=VECTOR('',#1366,10.);
#416=VECTOR('',#1381,10.);
#417=VECTOR('',#1382,10.);
#418=VECTOR('',#1385,10.);
#419=VECTOR('',#1396,10.);
#420=VECTOR('',#1397,10.);
#421=VECTOR('',#1400,10.);
#422=VECTOR('',#1403,10.);
#423=VECTOR('',#1410,2.5);
#424=VECTOR('',#1415,10.);
#425=VECTOR('',#1416,10.);
#426=VECTOR('',#1417,10.);
#427=VECTOR('',#1420,10.);
#428=VECTOR('',#1421,10.);
#429=VECTOR('',#1424,10.);
#430=VECTOR('',#1425,10.);
#431=VECTOR('',#1428,10.);
#432=VERTEX_POINT('',#1437);
#433=VERTEX_POINT('',#1438);
#434=VERTEX_POINT('',#1440);
#435=VERTEX_POINT('',#1442);
#436=VERTEX_POINT('',#1444);
#437=VERTEX_POINT('',#1446);
#438=VERTEX_POINT('',#1449);
#439=VERTEX_POINT('',#1450);
#440=VERTEX_POINT('',#1452);
#441=VERTEX_POINT('',#1454);
#442=VERTEX_POINT('',#1458);
#443=VERTEX_POINT('',#1460);
#444=VERTEX_POINT('',#1462);
#445=VERTEX_POINT('',#1466);
#446=VERTEX_POINT('',#1469);
#447=VERTEX_POINT('',#1473);
#448=VERTEX_POINT('',#1479);
#449=VERTEX_POINT('',#1480);
#450=VERTEX_POINT('',#1482);
#451=VERTEX_POINT('',#1484);
#452=VERTEX_POINT('',#1488);
#453=VERTEX_POINT('',#1492);
#454=VERTEX_POINT('',#1494);
#455=VERTEX_POINT('',#1498);
#456=VERTEX_POINT('',#1500);
#457=VERTEX_POINT('',#1504);
#458=VERTEX_POINT('',#1508);
#459=VERTEX_POINT('',#1512);
#460=VERTEX_POINT('',#1518);
#461=VERTEX_POINT('',#1519);
#462=VERTEX_POINT('',#1521);
#463=VERTEX_POINT('',#1523);
#464=VERTEX_POINT('',#1527);
#465=VERTEX_POINT('',#1529);
#466=VERTEX_POINT('',#1533);
#467=VERTEX_POINT('',#1535);
#468=VERTEX_POINT('',#1542);
#469=VERTEX_POINT('',#1544);
#470=VERTEX_POINT('',#1548);
#471=VERTEX_POINT('',#1552);
#472=VERTEX_POINT('',#1553);
#473=VERTEX_POINT('',#1555);
#474=VERTEX_POINT('',#1557);
#475=VERTEX_POINT('',#1561);
#476=VERTEX_POINT('',#1567);
#477=VERTEX_POINT('',#1569);
#478=VERTEX_POINT('',#1573);
#479=VERTEX_POINT('',#1576);
#480=VERTEX_POINT('',#1578);
#481=VERTEX_POINT('',#1582);
#482=VERTEX_POINT('',#1585);
#483=VERTEX_POINT('',#1587);
#484=VERTEX_POINT('',#1591);
#485=VERTEX_POINT('',#1594);
#486=VERTEX_POINT('',#1596);
#487=VERTEX_POINT('',#1600);
#488=VERTEX_POINT('',#1605);
#489=VERTEX_POINT('',#1610);
#490=VERTEX_POINT('',#1615);
#491=VERTEX_POINT('',#1620);
#492=VERTEX_POINT('',#1626);
#493=VERTEX_POINT('',#1627);
#494=VERTEX_POINT('',#1629);
#495=VERTEX_POINT('',#1633);
#496=VERTEX_POINT('',#1634);
#497=VERTEX_POINT('',#1639);
#498=VERTEX_POINT('',#1641);
#499=VERTEX_POINT('',#1643);
#500=VERTEX_POINT('',#1646);
#501=VERTEX_POINT('',#1649);
#502=VERTEX_POINT('',#1650);
#503=VERTEX_POINT('',#1652);
#504=VERTEX_POINT('',#1654);
#505=VERTEX_POINT('',#1658);
#506=VERTEX_POINT('',#1662);
#507=VERTEX_POINT('',#1666);
#508=VERTEX_POINT('',#1672);
#509=VERTEX_POINT('',#1674);
#510=VERTEX_POINT('',#1683);
#511=VERTEX_POINT('',#1685);
#512=VERTEX_POINT('',#1696);
#513=VERTEX_POINT('',#1699);
#514=VERTEX_POINT('',#1703);
#515=VERTEX_POINT('',#1705);
#516=VERTEX_POINT('',#1709);
#517=VERTEX_POINT('',#1713);
#518=EDGE_CURVE('',#432,#433,#238,.T.);
#519=EDGE_CURVE('',#434,#432,#239,.T.);
#520=EDGE_CURVE('',#435,#434,#240,.T.);
#521=EDGE_CURVE('',#436,#435,#241,.T.);
#522=EDGE_CURVE('',#437,#436,#242,.T.);
#523=EDGE_CURVE('',#433,#437,#243,.T.);
#524=EDGE_CURVE('',#438,#439,#244,.T.);
#525=EDGE_CURVE('',#440,#438,#245,.T.);
#526=EDGE_CURVE('',#441,#440,#246,.T.);
#527=EDGE_CURVE('',#439,#441,#247,.T.);
#528=EDGE_CURVE('',#437,#442,#44,.T.);
#529=EDGE_CURVE('',#443,#436,#248,.T.);
#530=EDGE_CURVE('',#444,#443,#249,.T.);
#531=EDGE_CURVE('',#444,#442,#250,.T.);
#532=EDGE_CURVE('',#445,#432,#251,.T.);
#533=EDGE_CURVE('',#442,#445,#252,.T.);
#534=EDGE_CURVE('',#446,#444,#253,.T.);
#535=EDGE_CURVE('',#446,#434,#254,.T.);
#536=EDGE_CURVE('',#447,#446,#255,.T.);
#537=EDGE_CURVE('',#447,#435,#256,.T.);
#538=EDGE_CURVE('',#443,#447,#257,.T.);
#539=EDGE_CURVE('',#448,#449,#258,.T.);
#540=EDGE_CURVE('',#450,#448,#259,.T.);
#541=EDGE_CURVE('',#451,#450,#260,.T.);
#542=EDGE_CURVE('',#449,#451,#261,.T.);
#543=EDGE_CURVE('',#452,#433,#45,.T.);
#544=EDGE_CURVE('',#445,#452,#46,.T.);
#545=EDGE_CURVE('',#453,#451,#262,.T.);
#546=EDGE_CURVE('',#454,#453,#263,.T.);
#547=EDGE_CURVE('',#454,#449,#264,.T.);
#548=EDGE_CURVE('',#438,#455,#265,.T.);
#549=EDGE_CURVE('',#456,#455,#266,.T.);
#550=EDGE_CURVE('',#440,#456,#267,.T.);
#551=EDGE_CURVE('',#457,#450,#268,.T.);
#552=EDGE_CURVE('',#453,#457,#269,.T.);
#553=EDGE_CURVE('',#458,#456,#270,.T.);
#554=EDGE_CURVE('',#441,#458,#271,.T.);
#555=EDGE_CURVE('',#459,#448,#272,.T.);
#556=EDGE_CURVE('',#457,#459,#273,.T.);
#557=EDGE_CURVE('',#459,#454,#274,.T.);
#558=EDGE_CURVE('',#460,#461,#275,.T.);
#559=EDGE_CURVE('',#461,#462,#19,.T.);
#560=EDGE_CURVE('',#462,#463,#276,.T.);
#561=EDGE_CURVE('',#463,#460,#20,.T.);
#562=EDGE_CURVE('',#461,#464,#277,.T.);
#563=EDGE_CURVE('',#464,#465,#21,.T.);
#564=EDGE_CURVE('',#465,#462,#278,.T.);
#565=EDGE_CURVE('',#466,#465,#279,.T.);
#566=EDGE_CURVE('',#464,#467,#280,.T.);
#567=EDGE_CURVE('',#467,#466,#22,.T.);
#568=EDGE_CURVE('',#467,#460,#281,.T.);
#569=EDGE_CURVE('',#463,#466,#282,.T.);
#570=EDGE_CURVE('',#463,#468,#283,.T.);
#571=EDGE_CURVE('',#469,#468,#284,.T.);
#572=EDGE_CURVE('',#466,#469,#285,.T.);
#573=EDGE_CURVE('',#462,#470,#286,.T.);
#574=EDGE_CURVE('',#468,#470,#287,.T.);
#575=EDGE_CURVE('',#471,#472,#288,.T.);
#576=EDGE_CURVE('',#473,#471,#289,.T.);
#577=EDGE_CURVE('',#474,#473,#290,.T.);
#578=EDGE_CURVE('',#474,#472,#291,.T.);
#579=EDGE_CURVE('',#475,#469,#292,.T.);
#580=EDGE_CURVE('',#465,#475,#293,.T.);
#581=EDGE_CURVE('',#470,#475,#294,.T.);
#582=EDGE_CURVE('',#476,#476,#47,.T.);
#583=EDGE_CURVE('',#476,#477,#295,.T.);
#584=EDGE_CURVE('',#477,#477,#48,.T.);
#585=EDGE_CURVE('',#478,#478,#49,.T.);
#586=EDGE_CURVE('',#479,#479,#50,.T.);
#587=EDGE_CURVE('',#479,#480,#296,.T.);
#588=EDGE_CURVE('',#480,#480,#51,.T.);
#589=EDGE_CURVE('',#481,#481,#52,.T.);
#590=EDGE_CURVE('',#482,#482,#53,.T.);
#591=EDGE_CURVE('',#482,#483,#297,.T.);
#592=EDGE_CURVE('',#483,#483,#54,.T.);
#593=EDGE_CURVE('',#484,#484,#55,.T.);
#594=EDGE_CURVE('',#485,#485,#56,.T.);
#595=EDGE_CURVE('',#485,#486,#298,.T.);
#596=EDGE_CURVE('',#486,#486,#57,.T.);
#597=EDGE_CURVE('',#487,#487,#58,.T.);
#598=EDGE_CURVE('',#481,#452,#299,.T.);
#599=EDGE_CURVE('',#484,#488,#300,.T.);
#600=EDGE_CURVE('',#488,#488,#59,.T.);
#601=EDGE_CURVE('',#487,#489,#301,.T.);
#602=EDGE_CURVE('',#489,#489,#60,.T.);
#603=EDGE_CURVE('',#478,#490,#302,.T.);
#604=EDGE_CURVE('',#490,#490,#61,.T.);
#605=EDGE_CURVE('',#439,#491,#303,.T.);
#606=EDGE_CURVE('',#455,#491,#304,.T.);
#607=EDGE_CURVE('',#491,#458,#305,.T.);
#608=EDGE_CURVE('',#492,#493,#62,.T.);
#609=EDGE_CURVE('',#493,#494,#63,.T.);
#610=EDGE_CURVE('',#494,#492,#64,.T.);
#611=EDGE_CURVE('',#495,#496,#65,.T.);
#612=EDGE_CURVE('',#496,#493,#306,.T.);
#613=EDGE_CURVE('',#492,#495,#307,.T.);
#614=EDGE_CURVE('',#495,#497,#308,.T.);
#615=EDGE_CURVE('',#498,#497,#66,.T.);
#616=EDGE_CURVE('',#498,#499,#309,.T.);
#617=EDGE_CURVE('',#472,#499,#67,.T.);
#618=EDGE_CURVE('',#500,#474,#68,.T.);
#619=EDGE_CURVE('',#496,#500,#310,.T.);
#620=EDGE_CURVE('',#501,#502,#311,.T.);
#621=EDGE_CURVE('',#502,#503,#312,.T.);
#622=EDGE_CURVE('',#503,#504,#313,.T.);
#623=EDGE_CURVE('',#504,#501,#314,.T.);
#624=EDGE_CURVE('',#505,#492,#315,.T.);
#625=EDGE_CURVE('',#497,#505,#316,.T.);
#626=EDGE_CURVE('',#494,#506,#317,.T.);
#627=EDGE_CURVE('',#505,#506,#69,.T.);
#628=EDGE_CURVE('',#505,#507,#70,.T.);
#629=EDGE_CURVE('',#507,#498,#318,.T.);
#630=EDGE_CURVE('',#506,#507,#71,.T.);
#631=EDGE_CURVE('',#508,#473,#72,.F.);
#632=EDGE_CURVE('',#509,#508,#73,.F.);
#633=EDGE_CURVE('',#473,#509,#74,.F.);
#634=EDGE_CURVE('',#493,#509,#319,.T.);
#635=EDGE_CURVE('',#508,#494,#320,.T.);
#636=EDGE_CURVE('',#509,#500,#321,.T.);
#637=EDGE_CURVE('',#510,#471,#75,.F.);
#638=EDGE_CURVE('',#511,#510,#76,.F.);
#639=EDGE_CURVE('',#471,#511,#77,.F.);
#640=EDGE_CURVE('',#506,#511,#322,.T.);
#641=EDGE_CURVE('',#510,#507,#323,.T.);
#642=EDGE_CURVE('',#511,#508,#324,.T.);
#643=EDGE_CURVE('',#499,#510,#325,.T.);
#644=EDGE_CURVE('',#512,#512,#78,.T.);
#645=EDGE_CURVE('',#512,#513,#326,.T.);
#646=EDGE_CURVE('',#513,#513,#79,.T.);
#647=EDGE_CURVE('',#501,#514,#327,.T.);
#648=EDGE_CURVE('',#514,#515,#328,.T.);
#649=EDGE_CURVE('',#502,#515,#329,.T.);
#650=EDGE_CURVE('',#504,#516,#330,.T.);
#651=EDGE_CURVE('',#516,#514,#331,.T.);
#652=EDGE_CURVE('',#503,#517,#332,.T.);
#653=EDGE_CURVE('',#517,#516,#333,.T.);
#654=EDGE_CURVE('',#515,#517,#334,.T.);
#655=ORIENTED_EDGE('',*,*,#518,.F.);
#656=ORIENTED_EDGE('',*,*,#519,.F.);
#657=ORIENTED_EDGE('',*,*,#520,.F.);
#658=ORIENTED_EDGE('',*,*,#521,.F.);
#659=ORIENTED_EDGE('',*,*,#522,.F.);
#660=ORIENTED_EDGE('',*,*,#523,.F.);
#661=ORIENTED_EDGE('',*,*,#524,.F.);
#662=ORIENTED_EDGE('',*,*,#525,.F.);
#663=ORIENTED_EDGE('',*,*,#526,.F.);
#664=ORIENTED_EDGE('',*,*,#527,.F.);
#665=ORIENTED_EDGE('',*,*,#528,.F.);
#666=ORIENTED_EDGE('',*,*,#522,.T.);
#667=ORIENTED_EDGE('',*,*,#529,.F.);
#668=ORIENTED_EDGE('',*,*,#530,.F.);
#669=ORIENTED_EDGE('',*,*,#531,.T.);
#670=ORIENTED_EDGE('',*,*,#532,.F.);
#671=ORIENTED_EDGE('',*,*,#533,.F.);
#672=ORIENTED_EDGE('',*,*,#531,.F.);
#673=ORIENTED_EDGE('',*,*,#534,.F.);
#674=ORIENTED_EDGE('',*,*,#535,.T.);
#675=ORIENTED_EDGE('',*,*,#519,.T.);
#676=ORIENTED_EDGE('',*,*,#536,.F.);
#677=ORIENTED_EDGE('',*,*,#537,.T.);
#678=ORIENTED_EDGE('',*,*,#520,.T.);
#679=ORIENTED_EDGE('',*,*,#535,.F.);
#680=ORIENTED_EDGE('',*,*,#538,.F.);
#681=ORIENTED_EDGE('',*,*,#529,.T.);
#682=ORIENTED_EDGE('',*,*,#521,.T.);
#683=ORIENTED_EDGE('',*,*,#537,.F.);
#684=ORIENTED_EDGE('',*,*,#538,.T.);
#685=ORIENTED_EDGE('',*,*,#536,.T.);
#686=ORIENTED_EDGE('',*,*,#534,.T.);
#687=ORIENTED_EDGE('',*,*,#530,.T.);
#688=ORIENTED_EDGE('',*,*,#539,.F.);
#689=ORIENTED_EDGE('',*,*,#540,.F.);
#690=ORIENTED_EDGE('',*,*,#541,.F.);
#691=ORIENTED_EDGE('',*,*,#542,.F.);
#692=ORIENTED_EDGE('',*,*,#532,.T.);
#693=ORIENTED_EDGE('',*,*,#518,.T.);
#694=ORIENTED_EDGE('',*,*,#543,.F.);
#695=ORIENTED_EDGE('',*,*,#544,.F.);
#696=ORIENTED_EDGE('',*,*,#542,.T.);
#697=ORIENTED_EDGE('',*,*,#545,.F.);
#698=ORIENTED_EDGE('',*,*,#546,.F.);
#699=ORIENTED_EDGE('',*,*,#547,.T.);
#700=ORIENTED_EDGE('',*,*,#525,.T.);
#701=ORIENTED_EDGE('',*,*,#548,.T.);
#702=ORIENTED_EDGE('',*,*,#549,.F.);
#703=ORIENTED_EDGE('',*,*,#550,.F.);
#704=ORIENTED_EDGE('',*,*,#541,.T.);
#705=ORIENTED_EDGE('',*,*,#551,.F.);
#706=ORIENTED_EDGE('',*,*,#552,.F.);
#707=ORIENTED_EDGE('',*,*,#545,.T.);
#708=ORIENTED_EDGE('',*,*,#526,.T.);
#709=ORIENTED_EDGE('',*,*,#550,.T.);
#710=ORIENTED_EDGE('',*,*,#553,.F.);
#711=ORIENTED_EDGE('',*,*,#554,.F.);
#712=ORIENTED_EDGE('',*,*,#540,.T.);
#713=ORIENTED_EDGE('',*,*,#555,.F.);
#714=ORIENTED_EDGE('',*,*,#556,.F.);
#715=ORIENTED_EDGE('',*,*,#551,.T.);
#716=ORIENTED_EDGE('',*,*,#539,.T.);
#717=ORIENTED_EDGE('',*,*,#547,.F.);
#718=ORIENTED_EDGE('',*,*,#557,.F.);
#719=ORIENTED_EDGE('',*,*,#555,.T.);
#720=ORIENTED_EDGE('',*,*,#558,.T.);
#721=ORIENTED_EDGE('',*,*,#559,.T.);
#722=ORIENTED_EDGE('',*,*,#560,.T.);
#723=ORIENTED_EDGE('',*,*,#561,.T.);
#724=ORIENTED_EDGE('',*,*,#562,.T.);
#725=ORIENTED_EDGE('',*,*,#563,.T.);
#726=ORIENTED_EDGE('',*,*,#564,.T.);
#727=ORIENTED_EDGE('',*,*,#559,.F.);
#728=ORIENTED_EDGE('',*,*,#565,.T.);
#729=ORIENTED_EDGE('',*,*,#563,.F.);
#730=ORIENTED_EDGE('',*,*,#566,.T.);
#731=ORIENTED_EDGE('',*,*,#567,.T.);
#732=ORIENTED_EDGE('',*,*,#568,.T.);
#733=ORIENTED_EDGE('',*,*,#561,.F.);
#734=ORIENTED_EDGE('',*,*,#569,.T.);
#735=ORIENTED_EDGE('',*,*,#567,.F.);
#736=ORIENTED_EDGE('',*,*,#569,.F.);
#737=ORIENTED_EDGE('',*,*,#570,.T.);
#738=ORIENTED_EDGE('',*,*,#571,.F.);
#739=ORIENTED_EDGE('',*,*,#572,.F.);
#740=ORIENTED_EDGE('',*,*,#560,.F.);
#741=ORIENTED_EDGE('',*,*,#573,.T.);
#742=ORIENTED_EDGE('',*,*,#574,.F.);
#743=ORIENTED_EDGE('',*,*,#570,.F.);
#744=ORIENTED_EDGE('',*,*,#575,.F.);
#745=ORIENTED_EDGE('',*,*,#576,.F.);
#746=ORIENTED_EDGE('',*,*,#577,.F.);
#747=ORIENTED_EDGE('',*,*,#578,.T.);
#748=ORIENTED_EDGE('',*,*,#558,.F.);
#749=ORIENTED_EDGE('',*,*,#568,.F.);
#750=ORIENTED_EDGE('',*,*,#566,.F.);
#751=ORIENTED_EDGE('',*,*,#562,.F.);
#752=ORIENTED_EDGE('',*,*,#565,.F.);
#753=ORIENTED_EDGE('',*,*,#572,.T.);
#754=ORIENTED_EDGE('',*,*,#579,.F.);
#755=ORIENTED_EDGE('',*,*,#580,.F.);
#756=ORIENTED_EDGE('',*,*,#564,.F.);
#757=ORIENTED_EDGE('',*,*,#580,.T.);
#758=ORIENTED_EDGE('',*,*,#581,.F.);
#759=ORIENTED_EDGE('',*,*,#573,.F.);
#760=ORIENTED_EDGE('',*,*,#582,.F.);
#761=ORIENTED_EDGE('',*,*,#583,.T.);
#762=ORIENTED_EDGE('',*,*,#584,.T.);
#763=ORIENTED_EDGE('',*,*,#583,.F.);
#764=ORIENTED_EDGE('',*,*,#584,.F.);
#765=ORIENTED_EDGE('',*,*,#585,.F.);
#766=ORIENTED_EDGE('',*,*,#586,.F.);
#767=ORIENTED_EDGE('',*,*,#587,.T.);
#768=ORIENTED_EDGE('',*,*,#588,.T.);
#769=ORIENTED_EDGE('',*,*,#587,.F.);
#770=ORIENTED_EDGE('',*,*,#588,.F.);
#771=ORIENTED_EDGE('',*,*,#589,.F.);
#772=ORIENTED_EDGE('',*,*,#590,.F.);
#773=ORIENTED_EDGE('',*,*,#591,.T.);
#774=ORIENTED_EDGE('',*,*,#592,.T.);
#775=ORIENTED_EDGE('',*,*,#591,.F.);
#776=ORIENTED_EDGE('',*,*,#592,.F.);
#777=ORIENTED_EDGE('',*,*,#593,.F.);
#778=ORIENTED_EDGE('',*,*,#594,.F.);
#779=ORIENTED_EDGE('',*,*,#595,.T.);
#780=ORIENTED_EDGE('',*,*,#596,.T.);
#781=ORIENTED_EDGE('',*,*,#595,.F.);
#782=ORIENTED_EDGE('',*,*,#596,.F.);
#783=ORIENTED_EDGE('',*,*,#597,.F.);
#784=ORIENTED_EDGE('',*,*,#589,.T.);
#785=ORIENTED_EDGE('',*,*,#598,.T.);
#786=ORIENTED_EDGE('',*,*,#543,.T.);
#787=ORIENTED_EDGE('',*,*,#523,.T.);
#788=ORIENTED_EDGE('',*,*,#528,.T.);
#789=ORIENTED_EDGE('',*,*,#533,.T.);
#790=ORIENTED_EDGE('',*,*,#544,.T.);
#791=ORIENTED_EDGE('',*,*,#598,.F.);
#792=ORIENTED_EDGE('',*,*,#593,.T.);
#793=ORIENTED_EDGE('',*,*,#599,.T.);
#794=ORIENTED_EDGE('',*,*,#600,.T.);
#795=ORIENTED_EDGE('',*,*,#599,.F.);
#796=ORIENTED_EDGE('',*,*,#600,.F.);
#797=ORIENTED_EDGE('',*,*,#597,.T.);
#798=ORIENTED_EDGE('',*,*,#601,.T.);
#799=ORIENTED_EDGE('',*,*,#602,.T.);
#800=ORIENTED_EDGE('',*,*,#601,.F.);
#801=ORIENTED_EDGE('',*,*,#602,.F.);
#802=ORIENTED_EDGE('',*,*,#585,.T.);
#803=ORIENTED_EDGE('',*,*,#603,.T.);
#804=ORIENTED_EDGE('',*,*,#604,.T.);
#805=ORIENTED_EDGE('',*,*,#603,.F.);
#806=ORIENTED_EDGE('',*,*,#604,.F.);
#807=ORIENTED_EDGE('',*,*,#524,.T.);
#808=ORIENTED_EDGE('',*,*,#605,.T.);
#809=ORIENTED_EDGE('',*,*,#606,.F.);
#810=ORIENTED_EDGE('',*,*,#548,.F.);
#811=ORIENTED_EDGE('',*,*,#527,.T.);
#812=ORIENTED_EDGE('',*,*,#554,.T.);
#813=ORIENTED_EDGE('',*,*,#607,.F.);
#814=ORIENTED_EDGE('',*,*,#605,.F.);
#815=ORIENTED_EDGE('',*,*,#608,.T.);
#816=ORIENTED_EDGE('',*,*,#609,.T.);
#817=ORIENTED_EDGE('',*,*,#610,.T.);
#818=ORIENTED_EDGE('',*,*,#611,.T.);
#819=ORIENTED_EDGE('',*,*,#612,.T.);
#820=ORIENTED_EDGE('',*,*,#608,.F.);
#821=ORIENTED_EDGE('',*,*,#613,.T.);
#822=ORIENTED_EDGE('',*,*,#611,.F.);
#823=ORIENTED_EDGE('',*,*,#614,.T.);
#824=ORIENTED_EDGE('',*,*,#615,.F.);
#825=ORIENTED_EDGE('',*,*,#616,.T.);
#826=ORIENTED_EDGE('',*,*,#617,.F.);
#827=ORIENTED_EDGE('',*,*,#578,.F.);
#828=ORIENTED_EDGE('',*,*,#618,.F.);
#829=ORIENTED_EDGE('',*,*,#619,.F.);
#830=ORIENTED_EDGE('',*,*,#582,.T.);
#831=ORIENTED_EDGE('',*,*,#586,.T.);
#832=ORIENTED_EDGE('',*,*,#590,.T.);
#833=ORIENTED_EDGE('',*,*,#594,.T.);
#834=ORIENTED_EDGE('',*,*,#620,.T.);
#835=ORIENTED_EDGE('',*,*,#621,.T.);
#836=ORIENTED_EDGE('',*,*,#622,.T.);
#837=ORIENTED_EDGE('',*,*,#623,.T.);
#838=ORIENTED_EDGE('',*,*,#613,.F.);
#839=ORIENTED_EDGE('',*,*,#624,.F.);
#840=ORIENTED_EDGE('',*,*,#625,.F.);
#841=ORIENTED_EDGE('',*,*,#614,.F.);
#842=ORIENTED_EDGE('',*,*,#552,.T.);
#843=ORIENTED_EDGE('',*,*,#556,.T.);
#844=ORIENTED_EDGE('',*,*,#557,.T.);
#845=ORIENTED_EDGE('',*,*,#546,.T.);
#846=ORIENTED_EDGE('',*,*,#610,.F.);
#847=ORIENTED_EDGE('',*,*,#626,.T.);
#848=ORIENTED_EDGE('',*,*,#627,.F.);
#849=ORIENTED_EDGE('',*,*,#624,.T.);
#850=ORIENTED_EDGE('',*,*,#615,.T.);
#851=ORIENTED_EDGE('',*,*,#625,.T.);
#852=ORIENTED_EDGE('',*,*,#628,.T.);
#853=ORIENTED_EDGE('',*,*,#629,.T.);
#854=ORIENTED_EDGE('',*,*,#628,.F.);
#855=ORIENTED_EDGE('',*,*,#627,.T.);
#856=ORIENTED_EDGE('',*,*,#630,.T.);
#857=ORIENTED_EDGE('',*,*,#631,.F.);
#858=ORIENTED_EDGE('',*,*,#632,.F.);
#859=ORIENTED_EDGE('',*,*,#633,.F.);
#860=ORIENTED_EDGE('',*,*,#609,.F.);
#861=ORIENTED_EDGE('',*,*,#634,.T.);
#862=ORIENTED_EDGE('',*,*,#632,.T.);
#863=ORIENTED_EDGE('',*,*,#635,.T.);
#864=ORIENTED_EDGE('',*,*,#618,.T.);
#865=ORIENTED_EDGE('',*,*,#577,.T.);
#866=ORIENTED_EDGE('',*,*,#633,.T.);
#867=ORIENTED_EDGE('',*,*,#636,.T.);
#868=ORIENTED_EDGE('',*,*,#637,.F.);
#869=ORIENTED_EDGE('',*,*,#638,.F.);
#870=ORIENTED_EDGE('',*,*,#639,.F.);
#871=ORIENTED_EDGE('',*,*,#630,.F.);
#872=ORIENTED_EDGE('',*,*,#640,.T.);
#873=ORIENTED_EDGE('',*,*,#638,.T.);
#874=ORIENTED_EDGE('',*,*,#641,.T.);
#875=ORIENTED_EDGE('',*,*,#631,.T.);
#876=ORIENTED_EDGE('',*,*,#576,.T.);
#877=ORIENTED_EDGE('',*,*,#639,.T.);
#878=ORIENTED_EDGE('',*,*,#642,.T.);
#879=ORIENTED_EDGE('',*,*,#617,.T.);
#880=ORIENTED_EDGE('',*,*,#643,.T.);
#881=ORIENTED_EDGE('',*,*,#637,.T.);
#882=ORIENTED_EDGE('',*,*,#575,.T.);
#883=ORIENTED_EDGE('',*,*,#626,.F.);
#884=ORIENTED_EDGE('',*,*,#635,.F.);
#885=ORIENTED_EDGE('',*,*,#642,.F.);
#886=ORIENTED_EDGE('',*,*,#640,.F.);
#887=ORIENTED_EDGE('',*,*,#644,.T.);
#888=ORIENTED_EDGE('',*,*,#644,.F.);
#889=ORIENTED_EDGE('',*,*,#645,.T.);
#890=ORIENTED_EDGE('',*,*,#646,.F.);
#891=ORIENTED_EDGE('',*,*,#645,.F.);
#892=ORIENTED_EDGE('',*,*,#620,.F.);
#893=ORIENTED_EDGE('',*,*,#647,.T.);
#894=ORIENTED_EDGE('',*,*,#648,.T.);
#895=ORIENTED_EDGE('',*,*,#649,.F.);
#896=ORIENTED_EDGE('',*,*,#623,.F.);
#897=ORIENTED_EDGE('',*,*,#650,.T.);
#898=ORIENTED_EDGE('',*,*,#651,.T.);
#899=ORIENTED_EDGE('',*,*,#647,.F.);
#900=ORIENTED_EDGE('',*,*,#553,.T.);
#901=ORIENTED_EDGE('',*,*,#549,.T.);
#902=ORIENTED_EDGE('',*,*,#606,.T.);
#903=ORIENTED_EDGE('',*,*,#607,.T.);
#904=ORIENTED_EDGE('',*,*,#622,.F.);
#905=ORIENTED_EDGE('',*,*,#652,.T.);
#906=ORIENTED_EDGE('',*,*,#653,.T.);
#907=ORIENTED_EDGE('',*,*,#650,.F.);
#908=ORIENTED_EDGE('',*,*,#621,.F.);
#909=ORIENTED_EDGE('',*,*,#649,.T.);
#910=ORIENTED_EDGE('',*,*,#654,.T.);
#911=ORIENTED_EDGE('',*,*,#652,.F.);
#912=ORIENTED_EDGE('',*,*,#574,.T.);
#913=ORIENTED_EDGE('',*,*,#581,.T.);
#914=ORIENTED_EDGE('',*,*,#579,.T.);
#915=ORIENTED_EDGE('',*,*,#571,.T.);
#916=ORIENTED_EDGE('',*,*,#654,.F.);
#917=ORIENTED_EDGE('',*,*,#648,.F.);
#918=ORIENTED_EDGE('',*,*,#651,.F.);
#919=ORIENTED_EDGE('',*,*,#653,.F.);
#920=ORIENTED_EDGE('',*,*,#646,.T.);
#921=ORIENTED_EDGE('',*,*,#629,.F.);
#922=ORIENTED_EDGE('',*,*,#641,.F.);
#923=ORIENTED_EDGE('',*,*,#643,.F.);
#924=ORIENTED_EDGE('',*,*,#616,.F.);
#925=ORIENTED_EDGE('',*,*,#612,.F.);
#926=ORIENTED_EDGE('',*,*,#619,.T.);
#927=ORIENTED_EDGE('',*,*,#636,.F.);
#928=ORIENTED_EDGE('',*,*,#634,.F.);
#929=PLANE('',#1030);
#930=PLANE('',#1031);
#931=PLANE('',#1033);
#932=PLANE('',#1034);
#933=PLANE('',#1035);
#934=PLANE('',#1036);
#935=PLANE('',#1037);
#936=PLANE('',#1040);
#937=PLANE('',#1041);
#938=PLANE('',#1042);
#939=PLANE('',#1043);
#940=PLANE('',#1044);
#941=PLANE('',#1045);
#942=PLANE('',#1054);
#943=PLANE('',#1055);
#944=PLANE('',#1056);
#945=PLANE('',#1057);
#946=PLANE('',#1058);
#947=PLANE('',#1062);
#948=PLANE('',#1067);
#949=PLANE('',#1072);
#950=PLANE('',#1077);
#951=PLANE('',#1082);
#952=PLANE('',#1085);
#953=PLANE('',#1088);
#954=PLANE('',#1089);
#955=PLANE('',#1090);
#956=PLANE('',#1097);
#957=PLANE('',#1101);
#958=PLANE('',#1121);
#959=PLANE('',#1125);
#960=PLANE('',#1126);
#961=PLANE('',#1127);
#962=PLANE('',#1128);
#963=PLANE('',#1129);
#964=PLANE('',#1130);
#965=PLANE('',#1131);
#966=ADVANCED_FACE('',(#97,#80),#929,.F.);
#967=ADVANCED_FACE('',(#98),#930,.F.);
#968=ADVANCED_FACE('',(#99),#931,.F.);
#969=ADVANCED_FACE('',(#100),#932,.F.);
#970=ADVANCED_FACE('',(#101),#933,.F.);
#971=ADVANCED_FACE('',(#102,#81),#934,.T.);
#972=ADVANCED_FACE('',(#103),#935,.F.);
#973=ADVANCED_FACE('',(#104),#936,.F.);
#974=ADVANCED_FACE('',(#105),#937,.F.);
#975=ADVANCED_FACE('',(#106),#938,.F.);
#976=ADVANCED_FACE('',(#107),#939,.F.);
#977=ADVANCED_FACE('',(#108),#940,.F.);
#978=ADVANCED_FACE('',(#109),#941,.F.);
#979=ADVANCED_FACE('',(#110),#23,.T.);
#980=ADVANCED_FACE('',(#111),#24,.T.);
#981=ADVANCED_FACE('',(#112),#25,.T.);
#982=ADVANCED_FACE('',(#113),#26,.T.);
#983=ADVANCED_FACE('',(#114),#942,.F.);
#984=ADVANCED_FACE('',(#115),#943,.F.);
#985=ADVANCED_FACE('',(#116,#82),#944,.T.);
#986=ADVANCED_FACE('',(#117),#945,.F.);
#987=ADVANCED_FACE('',(#118),#946,.F.);
#988=ADVANCED_FACE('',(#119),#27,.F.);
#989=ADVANCED_FACE('',(#120,#83),#947,.F.);
#990=ADVANCED_FACE('',(#121),#28,.F.);
#991=ADVANCED_FACE('',(#122,#84),#948,.F.);
#992=ADVANCED_FACE('',(#123),#29,.F.);
#993=ADVANCED_FACE('',(#124,#85),#949,.F.);
#994=ADVANCED_FACE('',(#125),#30,.F.);
#995=ADVANCED_FACE('',(#126,#86),#950,.F.);
#996=ADVANCED_FACE('',(#127),#31,.F.);
#997=ADVANCED_FACE('',(#128),#32,.F.);
#998=ADVANCED_FACE('',(#129),#951,.F.);
#999=ADVANCED_FACE('',(#130),#33,.F.);
#1000=ADVANCED_FACE('',(#131),#952,.F.);
#1001=ADVANCED_FACE('',(#132),#34,.F.);
#1002=ADVANCED_FACE('',(#133),#953,.F.);
#1003=ADVANCED_FACE('',(#134),#954,.F.);
#1004=ADVANCED_FACE('',(#135),#955,.F.);
#1005=ADVANCED_FACE('',(#136),#15,.T.);
#1006=ADVANCED_FACE('',(#137),#35,.T.);
#1007=ADVANCED_FACE('',(#138,#87,#88,#89,#90,#91),#956,.T.);
#1008=ADVANCED_FACE('',(#139,#92),#957,.F.);
#1009=ADVANCED_FACE('',(#140),#36,.T.);
#1010=ADVANCED_FACE('',(#141),#37,.T.);
#1011=ADVANCED_FACE('',(#142),#16,.T.);
#1012=ADVANCED_FACE('',(#143),#17,.T.);
#1013=ADVANCED_FACE('',(#144),#38,.T.);
#1014=ADVANCED_FACE('',(#145),#39,.T.);
#1015=ADVANCED_FACE('',(#146),#18,.T.);
#1016=ADVANCED_FACE('',(#147),#40,.T.);
#1017=ADVANCED_FACE('',(#148),#41,.T.);
#1018=ADVANCED_FACE('',(#149),#42,.T.);
#1019=ADVANCED_FACE('',(#150,#93),#958,.T.);
#1020=ADVANCED_FACE('',(#151),#43,.F.);
#1021=ADVANCED_FACE('',(#152),#959,.F.);
#1022=ADVANCED_FACE('',(#153,#94),#960,.F.);
#1023=ADVANCED_FACE('',(#154),#961,.F.);
#1024=ADVANCED_FACE('',(#155,#95),#962,.F.);
#1025=ADVANCED_FACE('',(#156,#96),#963,.F.);
#1026=ADVANCED_FACE('',(#157),#964,.T.);
#1027=ADVANCED_FACE('',(#158),#965,.T.);
#1028=CLOSED_SHELL('',(#966,#967,#968,#969,#970,#971,#972,#973,#974,#975,
#976,#977,#978,#979,#980,#981,#982,#983,#984,#985,#986,#987,#988,#989,#990,
#991,#992,#993,#994,#995,#996,#997,#998,#999,#1000,#1001,#1002,#1003,#1004,
#1005,#1006,#1007,#1008,#1009,#1010,#1011,#1012,#1013,#1014,#1015,#1016,
#1017,#1018,#1019,#1020,#1021,#1022,#1023,#1024,#1025,#1026,#1027));
#1029=AXIS2_PLACEMENT_3D('',#1435,#1132,#1133);
#1030=AXIS2_PLACEMENT_3D('',#1436,#1134,#1135);
#1031=AXIS2_PLACEMENT_3D('',#1457,#1146,#1147);
#1032=AXIS2_PLACEMENT_3D('',#1459,#1148,#1149);
#1033=AXIS2_PLACEMENT_3D('',#1465,#1153,#1154);
#1034=AXIS2_PLACEMENT_3D('',#1472,#1159,#1160);
#1035=AXIS2_PLACEMENT_3D('',#1476,#1163,#1164);
#1036=AXIS2_PLACEMENT_3D('',#1478,#1166,#1167);
#1037=AXIS2_PLACEMENT_3D('',#1487,#1172,#1173);
#1038=AXIS2_PLACEMENT_3D('',#1489,#1174,#1175);
#1039=AXIS2_PLACEMENT_3D('',#1490,#1176,#1177);
#1040=AXIS2_PLACEMENT_3D('',#1491,#1178,#1179);
#1041=AXIS2_PLACEMENT_3D('',#1497,#1183,#1184);
#1042=AXIS2_PLACEMENT_3D('',#1503,#1188,#1189);
#1043=AXIS2_PLACEMENT_3D('',#1507,#1192,#1193);
#1044=AXIS2_PLACEMENT_3D('',#1511,#1196,#1197);
#1045=AXIS2_PLACEMENT_3D('',#1515,#1200,#1201);
#1046=AXIS2_PLACEMENT_3D('',#1517,#1203,#1204);
#1047=AXIS2_PLACEMENT_3D('',#1522,#1206,#1207);
#1048=AXIS2_PLACEMENT_3D('',#1525,#1209,#1210);
#1049=AXIS2_PLACEMENT_3D('',#1526,#1211,#1212);
#1050=AXIS2_PLACEMENT_3D('',#1530,#1214,#1215);
#1051=AXIS2_PLACEMENT_3D('',#1532,#1217,#1218);
#1052=AXIS2_PLACEMENT_3D('',#1537,#1221,#1222);
#1053=AXIS2_PLACEMENT_3D('',#1538,#1223,#1224);
#1054=AXIS2_PLACEMENT_3D('',#1541,#1227,#1228);
#1055=AXIS2_PLACEMENT_3D('',#1547,#1232,#1233);
#1056=AXIS2_PLACEMENT_3D('',#1551,#1236,#1237);
#1057=AXIS2_PLACEMENT_3D('',#1560,#1242,#1243);
#1058=AXIS2_PLACEMENT_3D('',#1564,#1246,#1247);
#1059=AXIS2_PLACEMENT_3D('',#1566,#1249,#1250);
#1060=AXIS2_PLACEMENT_3D('',#1568,#1251,#1252);
#1061=AXIS2_PLACEMENT_3D('',#1571,#1254,#1255);
#1062=AXIS2_PLACEMENT_3D('',#1572,#1256,#1257);
#1063=AXIS2_PLACEMENT_3D('',#1574,#1258,#1259);
#1064=AXIS2_PLACEMENT_3D('',#1575,#1260,#1261);
#1065=AXIS2_PLACEMENT_3D('',#1577,#1262,#1263);
#1066=AXIS2_PLACEMENT_3D('',#1580,#1265,#1266);
#1067=AXIS2_PLACEMENT_3D('',#1581,#1267,#1268);
#1068=AXIS2_PLACEMENT_3D('',#1583,#1269,#1270);
#1069=AXIS2_PLACEMENT_3D('',#1584,#1271,#1272);
#1070=AXIS2_PLACEMENT_3D('',#1586,#1273,#1274);
#1071=AXIS2_PLACEMENT_3D('',#1589,#1276,#1277);
#1072=AXIS2_PLACEMENT_3D('',#1590,#1278,#1279);
#1073=AXIS2_PLACEMENT_3D('',#1592,#1280,#1281);
#1074=AXIS2_PLACEMENT_3D('',#1593,#1282,#1283);
#1075=AXIS2_PLACEMENT_3D('',#1595,#1284,#1285);
#1076=AXIS2_PLACEMENT_3D('',#1598,#1287,#1288);
#1077=AXIS2_PLACEMENT_3D('',#1599,#1289,#1290);
#1078=AXIS2_PLACEMENT_3D('',#1601,#1291,#1292);
#1079=AXIS2_PLACEMENT_3D('',#1602,#1293,#1294);
#1080=AXIS2_PLACEMENT_3D('',#1604,#1296,#1297);
#1081=AXIS2_PLACEMENT_3D('',#1607,#1299,#1300);
#1082=AXIS2_PLACEMENT_3D('',#1608,#1301,#1302);
#1083=AXIS2_PLACEMENT_3D('',#1609,#1303,#1304);
#1084=AXIS2_PLACEMENT_3D('',#1612,#1306,#1307);
#1085=AXIS2_PLACEMENT_3D('',#1613,#1308,#1309);
#1086=AXIS2_PLACEMENT_3D('',#1614,#1310,#1311);
#1087=AXIS2_PLACEMENT_3D('',#1617,#1313,#1314);
#1088=AXIS2_PLACEMENT_3D('',#1618,#1315,#1316);
#1089=AXIS2_PLACEMENT_3D('',#1619,#1317,#1318);
#1090=AXIS2_PLACEMENT_3D('',#1623,#1321,#1322);
#1091=AXIS2_PLACEMENT_3D('',#1625,#1324,#1325);
#1092=AXIS2_PLACEMENT_3D('',#1628,#1326,#1327);
#1093=AXIS2_PLACEMENT_3D('',#1630,#1328,#1329);
#1094=AXIS2_PLACEMENT_3D('',#1631,#1330,#1331);
#1095=AXIS2_PLACEMENT_3D('',#1632,#1332,#1333);
#1096=AXIS2_PLACEMENT_3D('',#1635,#1334,#1335);
#1097=AXIS2_PLACEMENT_3D('',#1638,#1338,#1339);
#1098=AXIS2_PLACEMENT_3D('',#1642,#1341,#1342);
#1099=AXIS2_PLACEMENT_3D('',#1645,#1344,#1345);
#1100=AXIS2_PLACEMENT_3D('',#1647,#1346,#1347);
#1101=AXIS2_PLACEMENT_3D('',#1657,#1353,#1354);
#1102=AXIS2_PLACEMENT_3D('',#1661,#1357,#1358);
#1103=AXIS2_PLACEMENT_3D('',#1664,#1360,#1361);
#1104=AXIS2_PLACEMENT_3D('',#1665,#1362,#1363);
#1105=AXIS2_PLACEMENT_3D('',#1667,#1364,#1365);
#1106=AXIS2_PLACEMENT_3D('',#1669,#1367,#1368);
#1107=AXIS2_PLACEMENT_3D('',#1670,#1369,#1370);
#1108=AXIS2_PLACEMENT_3D('',#1671,#1371,#1372);
#1109=AXIS2_PLACEMENT_3D('',#1673,#1373,#1374);
#1110=AXIS2_PLACEMENT_3D('',#1675,#1375,#1376);
#1111=AXIS2_PLACEMENT_3D('',#1676,#1377,#1378);
#1112=AXIS2_PLACEMENT_3D('',#1677,#1379,#1380);
#1113=AXIS2_PLACEMENT_3D('',#1680,#1383,#1384);
#1114=AXIS2_PLACEMENT_3D('',#1682,#1386,#1387);
#1115=AXIS2_PLACEMENT_3D('',#1684,#1388,#1389);
#1116=AXIS2_PLACEMENT_3D('',#1686,#1390,#1391);
#1117=AXIS2_PLACEMENT_3D('',#1687,#1392,#1393);
#1118=AXIS2_PLACEMENT_3D('',#1688,#1394,#1395);
#1119=AXIS2_PLACEMENT_3D('',#1691,#1398,#1399);
#1120=AXIS2_PLACEMENT_3D('',#1693,#1401,#1402);
#1121=AXIS2_PLACEMENT_3D('',#1695,#1404,#1405);
#1122=AXIS2_PLACEMENT_3D('',#1697,#1406,#1407);
#1123=AXIS2_PLACEMENT_3D('',#1698,#1408,#1409);
#1124=AXIS2_PLACEMENT_3D('',#1701,#1411,#1412);
#1125=AXIS2_PLACEMENT_3D('',#1702,#1413,#1414);
#1126=AXIS2_PLACEMENT_3D('',#1708,#1418,#1419);
#1127=AXIS2_PLACEMENT_3D('',#1712,#1422,#1423);
#1128=AXIS2_PLACEMENT_3D('',#1716,#1426,#1427);
#1129=AXIS2_PLACEMENT_3D('',#1718,#1429,#1430);
#1130=AXIS2_PLACEMENT_3D('',#1719,#1431,#1432);
#1131=AXIS2_PLACEMENT_3D('',#1720,#1433,#1434);
#1132=DIRECTION('axis',(0.,0.,1.));
#1133=DIRECTION('refdir',(1.,0.,0.));
#1134=DIRECTION('center_axis',(0.,0.,1.));
#1135=DIRECTION('ref_axis',(1.,0.,0.));
#1136=DIRECTION('',(1.,0.,0.));
#1137=DIRECTION('',(-3.66028901187306E-17,-1.,0.));
#1138=DIRECTION('',(-1.,0.,0.));
#1139=DIRECTION('',(0.,1.,0.));
#1140=DIRECTION('',(1.,0.,0.));
#1141=DIRECTION('',(0.,-1.,0.));
#1142=DIRECTION('',(1.,0.,0.));
#1143=DIRECTION('',(0.,1.,0.));
#1144=DIRECTION('',(-1.,0.,0.));
#1145=DIRECTION('',(0.,-1.,0.));
#1146=DIRECTION('center_axis',(0.,-1.,0.));
#1147=DIRECTION('ref_axis',(1.,0.,0.));
#1148=DIRECTION('center_axis',(0.,1.,0.));
#1149=DIRECTION('ref_axis',(1.,0.,0.));
#1150=DIRECTION('',(0.,0.,1.));
#1151=DIRECTION('',(1.,0.,0.));
#1152=DIRECTION('',(0.,0.,1.));
#1153=DIRECTION('center_axis',(-1.,3.66028901187306E-17,0.));
#1154=DIRECTION('ref_axis',(-3.66028901187306E-17,-1.,0.));
#1155=DIRECTION('',(0.,0.,1.));
#1156=DIRECTION('',(0.,1.,0.));
#1157=DIRECTION('',(-3.66028901187306E-17,-1.,0.));
#1158=DIRECTION('',(0.,0.,1.));
#1159=DIRECTION('center_axis',(0.,1.,0.));
#1160=DIRECTION('ref_axis',(-1.,0.,0.));
#1161=DIRECTION('',(-1.,0.,0.));
#1162=DIRECTION('',(0.,0.,1.));
#1163=DIRECTION('center_axis',(1.,0.,0.));
#1164=DIRECTION('ref_axis',(0.,1.,0.));
#1165=DIRECTION('',(0.,1.,0.));
#1166=DIRECTION('center_axis',(0.,0.,1.));
#1167=DIRECTION('ref_axis',(1.,0.,0.));
#1168=DIRECTION('',(-1.,0.,0.));
#1169=DIRECTION('',(0.,1.,0.));
#1170=DIRECTION('',(1.,0.,0.));
#1171=DIRECTION('',(0.,-1.,0.));
#1172=DIRECTION('center_axis',(0.,1.,0.));
#1173=DIRECTION('ref_axis',(1.,0.,0.));
#1174=DIRECTION('center_axis',(0.,1.,0.));
#1175=DIRECTION('ref_axis',(1.,0.,0.));
#1176=DIRECTION('center_axis',(0.,1.,0.));
#1177=DIRECTION('ref_axis',(1.,0.,0.));
#1178=DIRECTION('center_axis',(-1.,0.,0.));
#1179=DIRECTION('ref_axis',(0.,-1.,0.));
#1180=DIRECTION('',(0.,0.,1.));
#1181=DIRECTION('',(0.,-1.,0.));
#1182=DIRECTION('',(0.,0.,1.));
#1183=DIRECTION('center_axis',(-1.,0.,0.));
#1184=DIRECTION('ref_axis',(0.,-1.,0.));
#1185=DIRECTION('',(0.,0.,1.));
#1186=DIRECTION('',(0.,1.,0.));
#1187=DIRECTION('',(0.,0.,1.));
#1188=DIRECTION('center_axis',(0.,-1.,0.));
#1189=DIRECTION('ref_axis',(1.,0.,0.));
#1190=DIRECTION('',(0.,0.,1.));
#1191=DIRECTION('',(1.,0.,0.));
#1192=DIRECTION('center_axis',(0.,-1.,0.));
#1193=DIRECTION('ref_axis',(1.,0.,0.));
#1194=DIRECTION('',(-1.,0.,0.));
#1195=DIRECTION('',(0.,0.,1.));
#1196=DIRECTION('center_axis',(1.,0.,0.));
#1197=DIRECTION('ref_axis',(0.,1.,0.));
#1198=DIRECTION('',(0.,0.,1.));
#1199=DIRECTION('',(0.,1.,0.));
#1200=DIRECTION('center_axis',(0.,1.,0.));
#1201=DIRECTION('ref_axis',(-1.,0.,0.));
#1202=DIRECTION('',(-1.,0.,0.));
#1203=DIRECTION('center_axis',(0.,-1.,0.));
#1204=DIRECTION('ref_axis',(-0.707106781186551,0.,0.707106781186544));
#1205=DIRECTION('',(0.,1.,0.));
#1206=DIRECTION('center_axis',(0.707106781186548,-0.707106781186548,0.));
#1207=DIRECTION('ref_axis',(0.707106781186547,0.707106781186547,0.));
#1208=DIRECTION('',(0.,-1.,0.));
#1209=DIRECTION('center_axis',(0.707106781186547,0.707106781186548,0.));
#1210=DIRECTION('ref_axis',(-0.707106781186548,0.707106781186547,0.));
#1211=DIRECTION('center_axis',(1.,0.,0.));
#1212=DIRECTION('ref_axis',(0.,-0.707106781186549,0.707106781186546));
#1213=DIRECTION('',(-1.,0.,0.));
#1214=DIRECTION('center_axis',(0.707106781186548,0.707106781186547,0.));
#1215=DIRECTION('ref_axis',(-0.707106781186547,0.707106781186548,0.));
#1216=DIRECTION('',(1.,0.,0.));
#1217=DIRECTION('center_axis',(0.,1.,0.));
#1218=DIRECTION('ref_axis',(0.707106781186549,0.,0.707106781186546));
#1219=DIRECTION('',(0.,1.,0.));
#1220=DIRECTION('',(0.,-1.,0.));
#1221=DIRECTION('center_axis',(-0.707106781186548,0.707106781186548,0.));
#1222=DIRECTION('ref_axis',(-0.707106781186548,-0.707106781186548,0.));
#1223=DIRECTION('center_axis',(-1.,0.,0.));
#1224=DIRECTION('ref_axis',(0.,0.707106781186548,0.707106781186547));
#1225=DIRECTION('',(1.,0.,0.));
#1226=DIRECTION('',(-1.,0.,0.));
#1227=DIRECTION('center_axis',(0.,-1.,0.));
#1228=DIRECTION('ref_axis',(-1.,0.,0.));
#1229=DIRECTION('',(0.,0.,-1.));
#1230=DIRECTION('',(1.,0.,0.));
#1231=DIRECTION('',(0.,0.,-1.));
#1232=DIRECTION('center_axis',(1.,0.,0.));
#1233=DIRECTION('ref_axis',(0.,-1.,0.));
#1234=DIRECTION('',(0.,0.,-1.));
#1235=DIRECTION('',(0.,1.,0.));
#1236=DIRECTION('center_axis',(0.,0.,1.));
#1237=DIRECTION('ref_axis',(1.,0.,0.));
#1238=DIRECTION('',(0.,-1.,0.));
#1239=DIRECTION('',(1.,0.,0.));
#1240=DIRECTION('',(0.,1.,0.));
#1241=DIRECTION('',(1.,0.,0.));
#1242=DIRECTION('center_axis',(-1.,0.,0.));
#1243=DIRECTION('ref_axis',(0.,1.,0.));
#1244=DIRECTION('',(0.,-1.,0.));
#1245=DIRECTION('',(0.,0.,-1.));
#1246=DIRECTION('center_axis',(0.,1.,0.));
#1247=DIRECTION('ref_axis',(1.,0.,0.));
#1248=DIRECTION('',(-1.,0.,0.));
#1249=DIRECTION('center_axis',(0.,1.,0.));
#1250=DIRECTION('ref_axis',(1.,0.,0.));
#1251=DIRECTION('center_axis',(0.,1.,0.));
#1252=DIRECTION('ref_axis',(1.,0.,0.));
#1253=DIRECTION('',(0.,1.,0.));
#1254=DIRECTION('center_axis',(0.,1.,0.));
#1255=DIRECTION('ref_axis',(1.,0.,0.));
#1256=DIRECTION('center_axis',(0.,1.,0.));
#1257=DIRECTION('ref_axis',(1.,0.,0.));
#1258=DIRECTION('center_axis',(0.,-1.,0.));
#1259=DIRECTION('ref_axis',(1.,0.,0.));
#1260=DIRECTION('center_axis',(0.,1.,0.));
#1261=DIRECTION('ref_axis',(1.,0.,0.));
#1262=DIRECTION('center_axis',(0.,1.,0.));
#1263=DIRECTION('ref_axis',(1.,0.,0.));
#1264=DIRECTION('',(0.,1.,0.));
#1265=DIRECTION('center_axis',(0.,1.,0.));
#1266=DIRECTION('ref_axis',(1.,0.,0.));
#1267=DIRECTION('center_axis',(0.,1.,0.));
#1268=DIRECTION('ref_axis',(1.,0.,0.));
#1269=DIRECTION('center_axis',(0.,-1.,0.));
#1270=DIRECTION('ref_axis',(1.,0.,0.));
#1271=DIRECTION('center_axis',(0.,1.,0.));
#1272=DIRECTION('ref_axis',(1.,0.,0.));
#1273=DIRECTION('center_axis',(0.,1.,0.));
#1274=DIRECTION('ref_axis',(1.,0.,0.));
#1275=DIRECTION('',(0.,1.,0.));
#1276=DIRECTION('center_axis',(0.,1.,0.));
#1277=DIRECTION('ref_axis',(1.,0.,0.));
#1278=DIRECTION('center_axis',(0.,1.,0.));
#1279=DIRECTION('ref_axis',(1.,0.,0.));
#1280=DIRECTION('center_axis',(0.,-1.,0.));
#1281=DIRECTION('ref_axis',(1.,0.,0.));
#1282=DIRECTION('center_axis',(0.,1.,0.));
#1283=DIRECTION('ref_axis',(1.,0.,0.));
#1284=DIRECTION('center_axis',(0.,1.,0.));
#1285=DIRECTION('ref_axis',(1.,0.,0.));
#1286=DIRECTION('',(0.,1.,0.));
#1287=DIRECTION('center_axis',(0.,1.,0.));
#1288=DIRECTION('ref_axis',(1.,0.,0.));
#1289=DIRECTION('center_axis',(0.,1.,0.));
#1290=DIRECTION('ref_axis',(1.,0.,0.));
#1291=DIRECTION('center_axis',(0.,-1.,0.));
#1292=DIRECTION('ref_axis',(1.,0.,0.));
#1293=DIRECTION('center_axis',(0.,1.,0.));
#1294=DIRECTION('ref_axis',(1.,0.,0.));
#1295=DIRECTION('',(0.,1.,0.));
#1296=DIRECTION('center_axis',(0.,1.,0.));
#1297=DIRECTION('ref_axis',(1.,0.,0.));
#1298=DIRECTION('',(0.,1.,0.));
#1299=DIRECTION('center_axis',(0.,1.,0.));
#1300=DIRECTION('ref_axis',(1.,0.,0.));
#1301=DIRECTION('center_axis',(0.,1.,0.));
#1302=DIRECTION('ref_axis',(1.,0.,0.));
#1303=DIRECTION('center_axis',(0.,1.,0.));
#1304=DIRECTION('ref_axis',(1.,0.,0.));
#1305=DIRECTION('',(0.,1.,0.));
#1306=DIRECTION('center_axis',(0.,1.,0.));
#1307=DIRECTION('ref_axis',(1.,0.,0.));
#1308=DIRECTION('center_axis',(0.,1.,0.));
#1309=DIRECTION('ref_axis',(1.,0.,0.));
#1310=DIRECTION('center_axis',(0.,1.,0.));
#1311=DIRECTION('ref_axis',(1.,0.,0.));
#1312=DIRECTION('',(0.,1.,0.));
#1313=DIRECTION('center_axis',(0.,1.,0.));
#1314=DIRECTION('ref_axis',(1.,0.,0.));
#1315=DIRECTION('center_axis',(0.,1.,0.));
#1316=DIRECTION('ref_axis',(1.,0.,0.));
#1317=DIRECTION('center_axis',(0.,1.,0.));
#1318=DIRECTION('ref_axis',(-1.,0.,0.));
#1319=DIRECTION('',(0.,0.,1.));
#1320=DIRECTION('',(1.,0.,0.));
#1321=DIRECTION('center_axis',(1.,0.,0.));
#1322=DIRECTION('ref_axis',(0.,1.,0.));
#1323=DIRECTION('',(0.,-1.,0.));
#1324=DIRECTION('center_axis',(-0.408248290463863,-0.816496580927726,-0.408248290463863));
#1325=DIRECTION('ref_axis',(-0.577350269189626,0.577350269189626,-0.577350269189626));
#1326=DIRECTION('center_axis',(0.,1.,0.));
#1327=DIRECTION('ref_axis',(0.,0.,-1.));
#1328=DIRECTION('center_axis',(0.,0.,-1.));
#1329=DIRECTION('ref_axis',(-0.707106781186547,0.707106781186548,0.));
#1330=DIRECTION('center_axis',(-1.,0.,0.));
#1331=DIRECTION('ref_axis',(0.,0.707106781186548,-0.707106781186547));
#1332=DIRECTION('center_axis',(0.,-1.,0.));
#1333=DIRECTION('ref_axis',(-0.707106781186547,0.,-0.707106781186547));
#1334=DIRECTION('center_axis',(0.,1.,0.));
#1335=DIRECTION('ref_axis',(-0.707106781186547,0.,-0.707106781186547));
#1336=DIRECTION('',(0.,1.,0.));
#1337=DIRECTION('',(0.,-1.,0.));
#1338=DIRECTION('center_axis',(0.,-1.,0.));
#1339=DIRECTION('ref_axis',(1.,0.,0.));
#1340=DIRECTION('',(1.,0.,0.));
#1341=DIRECTION('center_axis',(0.,1.,0.));
#1342=DIRECTION('ref_axis',(0.707106781186547,0.,-0.707106781186547));
#1343=DIRECTION('',(0.,0.,1.));
#1344=DIRECTION('center_axis',(0.,1.,0.));
#1345=DIRECTION('ref_axis',(0.707106781186547,0.,0.707106781186547));
#1346=DIRECTION('center_axis',(0.,1.,0.));
#1347=DIRECTION('ref_axis',(-0.707106781186547,0.,0.707106781186547));
#1348=DIRECTION('',(0.,0.,1.));
#1349=DIRECTION('',(0.,0.,1.));
#1350=DIRECTION('',(1.,0.,0.));
#1351=DIRECTION('',(0.,0.,-1.));
#1352=DIRECTION('',(-1.,0.,0.));
#1353=DIRECTION('center_axis',(0.,0.,1.));
#1354=DIRECTION('ref_axis',(1.,0.,0.));
#1355=DIRECTION('',(-1.,0.,0.));
#1356=DIRECTION('',(0.,1.,0.));
#1357=DIRECTION('center_axis',(-1.,0.,0.));
#1358=DIRECTION('ref_axis',(0.,0.707106781186547,-0.707106781186547));
#1359=DIRECTION('',(1.,0.,0.));
#1360=DIRECTION('center_axis',(1.,0.,0.));
#1361=DIRECTION('ref_axis',(0.,0.707106781186548,-0.707106781186547));
#1362=DIRECTION('center_axis',(0.,1.,0.));
#1363=DIRECTION('ref_axis',(0.707106781186547,0.,-0.707106781186547));
#1364=DIRECTION('center_axis',(0.,-1.,0.));
#1365=DIRECTION('ref_axis',(0.,0.,-1.));
#1366=DIRECTION('',(0.,-1.,0.));
#1367=DIRECTION('center_axis',(0.408248290463862,-0.816496580927726,-0.408248290463863));
#1368=DIRECTION('ref_axis',(0.577350269189626,0.577350269189626,-0.577350269189626));
#1369=DIRECTION('center_axis',(0.,0.,-1.));
#1370=DIRECTION('ref_axis',(0.707106781186548,0.707106781186548,0.));
#1371=DIRECTION('center_axis',(-0.408248290463863,-0.816496580927726,0.408248290463862));
#1372=DIRECTION('ref_axis',(-0.577350269189626,0.577350269189626,0.577350269189626));
#1373=DIRECTION('center_axis',(-1.,0.,0.));
#1374=DIRECTION('ref_axis',(0.,1.,0.));
#1375=DIRECTION('center_axis',(0.,0.,1.));
#1376=DIRECTION('ref_axis',(-1.,0.,0.));
#1377=DIRECTION('center_axis',(0.,1.,0.));
#1378=DIRECTION('ref_axis',(0.,0.,1.));
#1379=DIRECTION('center_axis',(0.,0.,1.));
#1380=DIRECTION('ref_axis',(-0.707106781186547,0.707106781186547,0.));
#1381=DIRECTION('',(0.,0.,1.));
#1382=DIRECTION('',(0.,0.,-1.));
#1383=DIRECTION('center_axis',(0.,-1.,0.));
#1384=DIRECTION('ref_axis',(-0.707106781186547,0.,0.707106781186547));
#1385=DIRECTION('',(0.,-1.,0.));
#1386=DIRECTION('center_axis',(0.408248290463863,-0.816496580927727,0.408248290463863));
#1387=DIRECTION('ref_axis',(0.577350269189626,0.577350269189626,0.577350269189626));
#1388=DIRECTION('center_axis',(0.,1.,0.));
#1389=DIRECTION('ref_axis',(1.,0.,0.));
#1390=DIRECTION('center_axis',(0.,0.,1.));
#1391=DIRECTION('ref_axis',(0.,1.,0.));
#1392=DIRECTION('center_axis',(1.,0.,0.));
#1393=DIRECTION('ref_axis',(0.,0.,1.));
#1394=DIRECTION('center_axis',(0.,0.,1.));
#1395=DIRECTION('ref_axis',(0.707106781186547,0.707106781186547,0.));
#1396=DIRECTION('',(0.,0.,1.));
#1397=DIRECTION('',(0.,0.,-1.));
#1398=DIRECTION('center_axis',(-1.,0.,0.));
#1399=DIRECTION('ref_axis',(0.,0.707106781186547,0.707106781186547));
#1400=DIRECTION('',(-1.,0.,0.));
#1401=DIRECTION('center_axis',(0.,1.,0.));
#1402=DIRECTION('ref_axis',(0.707106781186547,0.,0.707106781186547));
#1403=DIRECTION('',(0.,1.,0.));
#1404=DIRECTION('center_axis',(0.,1.,0.));
#1405=DIRECTION('ref_axis',(-1.,0.,0.));
#1406=DIRECTION('center_axis',(0.,-1.,0.));
#1407=DIRECTION('ref_axis',(-1.,0.,0.));
#1408=DIRECTION('center_axis',(0.,-1.,0.));
#1409=DIRECTION('ref_axis',(-1.,0.,0.));
#1410=DIRECTION('',(0.,-1.,0.));
#1411=DIRECTION('center_axis',(0.,1.,0.));
#1412=DIRECTION('ref_axis',(-1.,0.,0.));
#1413=DIRECTION('center_axis',(-1.,0.,0.));
#1414=DIRECTION('ref_axis',(0.,0.,1.));
#1415=DIRECTION('',(0.,1.,0.));
#1416=DIRECTION('',(0.,0.,1.));
#1417=DIRECTION('',(0.,1.,0.));
#1418=DIRECTION('center_axis',(0.,0.,-1.));
#1419=DIRECTION('ref_axis',(-1.,0.,0.));
#1420=DIRECTION('',(0.,1.,0.));
#1421=DIRECTION('',(-1.,0.,0.));
#1422=DIRECTION('center_axis',(1.,0.,0.));
#1423=DIRECTION('ref_axis',(0.,0.,-1.));
#1424=DIRECTION('',(0.,1.,0.));
#1425=DIRECTION('',(0.,0.,-1.));
#1426=DIRECTION('center_axis',(0.,0.,1.));
#1427=DIRECTION('ref_axis',(1.,0.,0.));
#1428=DIRECTION('',(1.,0.,0.));
#1429=DIRECTION('center_axis',(0.,1.,0.));
#1430=DIRECTION('ref_axis',(0.,0.,1.));
#1431=DIRECTION('center_axis',(1.,0.,0.));
#1432=DIRECTION('ref_axis',(0.,1.,0.));
#1433=DIRECTION('center_axis',(-1.,0.,0.));
#1434=DIRECTION('ref_axis',(0.,-1.,0.));
#1435=CARTESIAN_POINT('',(0.,0.,0.));
#1436=CARTESIAN_POINT('Origin',(26.3453459178221,27.8039365616037,6.));
#1437=CARTESIAN_POINT('',(5.67062376966139,14.,6.));
#1438=CARTESIAN_POINT('',(6.37477270848675,14.,6.));
#1439=CARTESIAN_POINT('',(15.672672958911,14.,6.));
#1440=CARTESIAN_POINT('',(5.67062376966139,42.969720206336,6.));
#1441=CARTESIAN_POINT('',(5.67062376966139,42.969720206336,6.));
#1442=CARTESIAN_POINT('',(47.0200680659828,42.969720206336,6.));
#1443=CARTESIAN_POINT('',(47.0200680659828,42.969720206336,6.));
#1444=CARTESIAN_POINT('',(47.0200680659828,12.6381529168714,6.));
#1445=CARTESIAN_POINT('',(47.0200680659828,12.6381529168714,6.));
#1446=CARTESIAN_POINT('',(6.37477270848675,12.6381529168714,6.));
#1447=CARTESIAN_POINT('',(5.67062376966139,12.6381529168714,6.));
#1448=CARTESIAN_POINT('',(6.37477270848675,0.,6.));
#1449=CARTESIAN_POINT('',(22.,15.9806373640221,6.));
#1450=CARTESIAN_POINT('',(32.,15.9806373640221,6.));
#1451=CARTESIAN_POINT('',(29.172672958911,15.9806373640221,6.));
#1452=CARTESIAN_POINT('',(22.,12.9806373640221,6.));
#1453=CARTESIAN_POINT('',(22.,21.8922869628129,6.));
#1454=CARTESIAN_POINT('',(32.,12.9806373640221,6.));
#1455=CARTESIAN_POINT('',(24.172672958911,12.9806373640221,6.));
#1456=CARTESIAN_POINT('',(32.,20.3922869628129,6.));
#1457=CARTESIAN_POINT('Origin',(5.67062376966139,12.6381529168714,1.));
#1458=CARTESIAN_POINT('',(5.67062376966139,12.6381529168714,3.43786563972072));
#1459=CARTESIAN_POINT('Origin',(5.,12.6381529168714,5.));
#1460=CARTESIAN_POINT('',(47.0200680659828,12.6381529168714,1.));
#1461=CARTESIAN_POINT('',(47.0200680659828,12.6381529168714,1.));
#1462=CARTESIAN_POINT('',(5.67062376966139,12.6381529168714,1.));
#1463=CARTESIAN_POINT('',(5.67062376966139,12.6381529168714,1.));
#1464=CARTESIAN_POINT('',(5.67062376966139,12.6381529168714,1.));
#1465=CARTESIAN_POINT('Origin',(5.67062376966139,42.969720206336,1.));
#1466=CARTESIAN_POINT('',(5.67062376966139,14.,3.43786563972072));
#1467=CARTESIAN_POINT('',(5.67062376966139,14.,3.));
#1468=CARTESIAN_POINT('',(5.67062376966139,0.,3.43786563972072));
#1469=CARTESIAN_POINT('',(5.67062376966139,42.969720206336,1.));
#1470=CARTESIAN_POINT('',(5.67062376966139,42.969720206336,1.));
#1471=CARTESIAN_POINT('',(5.67062376966139,42.969720206336,1.));
#1472=CARTESIAN_POINT('Origin',(47.0200680659828,42.969720206336,1.));
#1473=CARTESIAN_POINT('',(47.0200680659828,42.969720206336,1.));
#1474=CARTESIAN_POINT('',(47.0200680659828,42.969720206336,1.));
#1475=CARTESIAN_POINT('',(47.0200680659828,42.969720206336,1.));
#1476=CARTESIAN_POINT('Origin',(47.0200680659828,12.6381529168714,1.));
#1477=CARTESIAN_POINT('',(47.0200680659828,12.6381529168714,1.));
#1478=CARTESIAN_POINT('Origin',(26.3453459178221,27.8039365616037,1.));
#1479=CARTESIAN_POINT('',(32.,15.9806373640221,1.));
#1480=CARTESIAN_POINT('',(22.,15.9806373640221,1.));
#1481=CARTESIAN_POINT('',(29.172672958911,15.9806373640221,1.));
#1482=CARTESIAN_POINT('',(32.,12.9806373640221,1.));
#1483=CARTESIAN_POINT('',(32.,20.3922869628129,1.));
#1484=CARTESIAN_POINT('',(22.,12.9806373640221,1.));
#1485=CARTESIAN_POINT('',(24.172672958911,12.9806373640221,1.));
#1486=CARTESIAN_POINT('',(22.,21.8922869628129,1.));
#1487=CARTESIAN_POINT('Origin',(5.,14.,5.));
#1488=CARTESIAN_POINT('',(3.3,14.,5.));
#1489=CARTESIAN_POINT('Origin',(5.,14.,5.));
#1490=CARTESIAN_POINT('Origin',(5.,14.,5.));
#1491=CARTESIAN_POINT('Origin',(22.,15.9806373640221,0.));
#1492=CARTESIAN_POINT('',(22.,12.9806373640221,0.));
#1493=CARTESIAN_POINT('',(22.,12.9806373640221,0.));
#1494=CARTESIAN_POINT('',(22.,15.9806373640221,0.));
#1495=CARTESIAN_POINT('',(22.,20.240318682011,0.));
#1496=CARTESIAN_POINT('',(22.,15.9806373640221,0.));
#1497=CARTESIAN_POINT('Origin',(22.,15.9806373640221,0.));
#1498=CARTESIAN_POINT('',(22.,15.9806373640221,9.5));
#1499=CARTESIAN_POINT('',(22.,15.9806373640221,0.));
#1500=CARTESIAN_POINT('',(22.,12.9806373640221,9.5));
#1501=CARTESIAN_POINT('',(22.,7.99031868201103,9.5));
#1502=CARTESIAN_POINT('',(22.,12.9806373640221,0.));
#1503=CARTESIAN_POINT('Origin',(22.,12.9806373640221,0.));
#1504=CARTESIAN_POINT('',(32.,12.9806373640221,0.));
#1505=CARTESIAN_POINT('',(32.,12.9806373640221,0.));
#1506=CARTESIAN_POINT('',(24.5,12.9806373640221,0.));
#1507=CARTESIAN_POINT('Origin',(22.,12.9806373640221,0.));
#1508=CARTESIAN_POINT('',(32.,12.9806373640221,9.5));
#1509=CARTESIAN_POINT('',(37.,12.9806373640221,9.5));
#1510=CARTESIAN_POINT('',(32.,12.9806373640221,0.));
#1511=CARTESIAN_POINT('Origin',(32.,12.9806373640221,0.));
#1512=CARTESIAN_POINT('',(32.,15.9806373640221,0.));
#1513=CARTESIAN_POINT('',(32.,15.9806373640221,0.));
#1514=CARTESIAN_POINT('',(32.,18.740318682011,0.));
#1515=CARTESIAN_POINT('Origin',(32.,15.9806373640221,0.));
#1516=CARTESIAN_POINT('',(29.5,15.9806373640221,0.));
#1517=CARTESIAN_POINT('Origin',(41.,30.0952278450774,48.));
#1518=CARTESIAN_POINT('',(41.,19.6904556901548,50.));
#1519=CARTESIAN_POINT('',(41.,37.6904556901548,50.));
#1520=CARTESIAN_POINT('',(41.,30.0952278450774,50.));
#1521=CARTESIAN_POINT('',(39.,35.6904556901548,48.));
#1522=CARTESIAN_POINT('Origin',(41.,37.6904556901548,48.));
#1523=CARTESIAN_POINT('',(39.,21.6904556901548,48.));
#1524=CARTESIAN_POINT('',(39.,30.0952278450774,48.));
#1525=CARTESIAN_POINT('Origin',(41.,19.6904556901548,48.));
#1526=CARTESIAN_POINT('Origin',(21.,37.6904556901548,48.));
#1527=CARTESIAN_POINT('',(13.,37.6904556901548,50.));
#1528=CARTESIAN_POINT('',(21.,37.6904556901548,50.));
#1529=CARTESIAN_POINT('',(15.,35.6904556901548,48.));
#1530=CARTESIAN_POINT('Origin',(13.,37.6904556901548,48.));
#1531=CARTESIAN_POINT('',(21.,35.6904556901548,48.));
#1532=CARTESIAN_POINT('Origin',(13.,23.0952278450774,48.));
#1533=CARTESIAN_POINT('',(15.,21.6904556901548,48.));
#1534=CARTESIAN_POINT('',(15.,23.0952278450774,48.));
#1535=CARTESIAN_POINT('',(13.,19.6904556901548,50.));
#1536=CARTESIAN_POINT('',(13.,23.0952278450774,50.));
#1537=CARTESIAN_POINT('Origin',(13.,19.6904556901548,48.));
#1538=CARTESIAN_POINT('Origin',(33.,19.6904556901548,48.));
#1539=CARTESIAN_POINT('',(33.,19.6904556901548,50.));
#1540=CARTESIAN_POINT('',(33.,21.6904556901548,48.));
#1541=CARTESIAN_POINT('Origin',(39.,21.6904556901548,50.));
#1542=CARTESIAN_POINT('',(39.,21.6904556901548,40.5));
#1543=CARTESIAN_POINT('',(39.,21.6904556901548,50.));
#1544=CARTESIAN_POINT('',(15.,21.6904556901548,40.5));
#1545=CARTESIAN_POINT('',(20.5,21.6904556901548,40.5));
#1546=CARTESIAN_POINT('',(15.,21.6904556901548,50.));
#1547=CARTESIAN_POINT('Origin',(39.,35.6904556901548,50.));
#1548=CARTESIAN_POINT('',(39.,35.6904556901548,40.5));
#1549=CARTESIAN_POINT('',(39.,35.6904556901548,50.));
#1550=CARTESIAN_POINT('',(39.,17.8452278450774,40.5));
#1551=CARTESIAN_POINT('Origin',(27.,24.5,50.));
#1552=CARTESIAN_POINT('',(49.,44.,50.));
#1553=CARTESIAN_POINT('',(49.,0.,50.));
#1554=CARTESIAN_POINT('',(49.,12.25,50.));
#1555=CARTESIAN_POINT('',(5.,44.,50.));
#1556=CARTESIAN_POINT('',(40.5,44.,50.));
#1557=CARTESIAN_POINT('',(5.,0.,50.));
#1558=CARTESIAN_POINT('',(5.,36.75,50.));
#1559=CARTESIAN_POINT('',(0.,0.,50.));
#1560=CARTESIAN_POINT('Origin',(15.,21.6904556901548,50.));
#1561=CARTESIAN_POINT('',(15.,35.6904556901548,40.5));
#1562=CARTESIAN_POINT('',(15.,10.8452278450774,40.5));
#1563=CARTESIAN_POINT('',(15.,35.6904556901548,50.));
#1564=CARTESIAN_POINT('Origin',(15.,35.6904556901548,50.));
#1565=CARTESIAN_POINT('',(8.5,35.6904556901548,40.5));
#1566=CARTESIAN_POINT('Origin',(5.,0.,45.));
#1567=CARTESIAN_POINT('',(2.,0.,45.));
#1568=CARTESIAN_POINT('Origin',(5.,0.,45.));
#1569=CARTESIAN_POINT('',(2.,9.9,45.));
#1570=CARTESIAN_POINT('',(2.,0.,45.));
#1571=CARTESIAN_POINT('Origin',(5.,9.9,45.));
#1572=CARTESIAN_POINT('Origin',(5.,9.9,45.));
#1573=CARTESIAN_POINT('',(3.3,9.9,45.));
#1574=CARTESIAN_POINT('Origin',(5.,9.9,45.));
#1575=CARTESIAN_POINT('Origin',(5.,0.,5.));
#1576=CARTESIAN_POINT('',(2.,0.,5.));
#1577=CARTESIAN_POINT('Origin',(5.,0.,5.));
#1578=CARTESIAN_POINT('',(2.,9.9,5.));
#1579=CARTESIAN_POINT('',(2.,0.,5.));
#1580=CARTESIAN_POINT('Origin',(5.,9.9,5.));
#1581=CARTESIAN_POINT('Origin',(5.,9.9,5.));
#1582=CARTESIAN_POINT('',(3.3,9.9,5.));
#1583=CARTESIAN_POINT('Origin',(5.,9.9,5.));
#1584=CARTESIAN_POINT('Origin',(49.,0.,45.));
#1585=CARTESIAN_POINT('',(46.,0.,45.));
#1586=CARTESIAN_POINT('Origin',(49.,0.,45.));
#1587=CARTESIAN_POINT('',(46.,9.9,45.));
#1588=CARTESIAN_POINT('',(46.,0.,45.));
#1589=CARTESIAN_POINT('Origin',(49.,9.9,45.));
#1590=CARTESIAN_POINT('Origin',(49.,9.9,45.));
#1591=CARTESIAN_POINT('',(47.3,9.9,45.));
#1592=CARTESIAN_POINT('Origin',(49.,9.9,45.));
#1593=CARTESIAN_POINT('Origin',(49.,0.,5.));
#1594=CARTESIAN_POINT('',(46.,0.,5.));
#1595=CARTESIAN_POINT('Origin',(49.,0.,5.));
#1596=CARTESIAN_POINT('',(46.,9.9,5.));
#1597=CARTESIAN_POINT('',(46.,0.,5.));
#1598=CARTESIAN_POINT('Origin',(49.,9.9,5.));
#1599=CARTESIAN_POINT('Origin',(49.,9.9,5.));
#1600=CARTESIAN_POINT('',(47.3,9.9,5.));
#1601=CARTESIAN_POINT('Origin',(49.,9.9,5.));
#1602=CARTESIAN_POINT('Origin',(5.,0.,5.));
#1603=CARTESIAN_POINT('',(3.3,0.,5.));
#1604=CARTESIAN_POINT('Origin',(49.,0.,45.));
#1605=CARTESIAN_POINT('',(47.3,14.,45.));
#1606=CARTESIAN_POINT('',(47.3,0.,45.));
#1607=CARTESIAN_POINT('Origin',(49.,14.,45.));
#1608=CARTESIAN_POINT('Origin',(49.,14.,45.));
#1609=CARTESIAN_POINT('Origin',(49.,0.,5.));
#1610=CARTESIAN_POINT('',(47.3,14.,5.));
#1611=CARTESIAN_POINT('',(47.3,0.,5.));
#1612=CARTESIAN_POINT('Origin',(49.,14.,5.));
#1613=CARTESIAN_POINT('Origin',(49.,14.,5.));
#1614=CARTESIAN_POINT('Origin',(5.,0.,45.));
#1615=CARTESIAN_POINT('',(3.3,14.,45.));
#1616=CARTESIAN_POINT('',(3.3,0.,45.));
#1617=CARTESIAN_POINT('Origin',(5.,14.,45.));
#1618=CARTESIAN_POINT('Origin',(5.,14.,45.));
#1619=CARTESIAN_POINT('Origin',(32.,15.9806373640221,0.));
#1620=CARTESIAN_POINT('',(32.,15.9806373640221,9.5));
#1621=CARTESIAN_POINT('',(32.,15.9806373640221,0.));
#1622=CARTESIAN_POINT('',(42.,15.9806373640221,9.5));
#1623=CARTESIAN_POINT('Origin',(32.,12.9806373640221,0.));
#1624=CARTESIAN_POINT('',(32.,6.49031868201103,9.5));
#1625=CARTESIAN_POINT('Origin',(5.,44.,5.));
#1626=CARTESIAN_POINT('',(5.,44.,0.));
#1627=CARTESIAN_POINT('',(0.,44.,5.));
#1628=CARTESIAN_POINT('Origin',(5.,44.,5.));
#1629=CARTESIAN_POINT('',(5.,49.,5.));
#1630=CARTESIAN_POINT('Origin',(5.,44.,5.));
#1631=CARTESIAN_POINT('Origin',(5.,44.,5.));
#1632=CARTESIAN_POINT('Origin',(5.,36.75,5.));
#1633=CARTESIAN_POINT('',(5.,0.,0.));
#1634=CARTESIAN_POINT('',(0.,0.,5.));
#1635=CARTESIAN_POINT('Origin',(5.,0.,5.));
#1636=CARTESIAN_POINT('',(0.,36.75,5.));
#1637=CARTESIAN_POINT('',(5.,36.75,0.));
#1638=CARTESIAN_POINT('Origin',(0.,0.,0.));
#1639=CARTESIAN_POINT('',(49.,0.,0.));
#1640=CARTESIAN_POINT('',(0.,0.,0.));
#1641=CARTESIAN_POINT('',(54.,0.,5.));
#1642=CARTESIAN_POINT('Origin',(49.,0.,5.));
#1643=CARTESIAN_POINT('',(54.,0.,45.));
#1644=CARTESIAN_POINT('',(54.,0.,0.));
#1645=CARTESIAN_POINT('Origin',(49.,0.,45.));
#1646=CARTESIAN_POINT('',(0.,0.,45.));
#1647=CARTESIAN_POINT('Origin',(5.,0.,45.));
#1648=CARTESIAN_POINT('',(0.,0.,0.));
#1649=CARTESIAN_POINT('',(2.,0.,9.5));
#1650=CARTESIAN_POINT('',(2.,0.,40.5));
#1651=CARTESIAN_POINT('',(2.,0.,4.75));
#1652=CARTESIAN_POINT('',(52.,0.,40.5));
#1653=CARTESIAN_POINT('',(1.,0.,40.5));
#1654=CARTESIAN_POINT('',(52.,0.,9.5));
#1655=CARTESIAN_POINT('',(52.,0.,20.25));
#1656=CARTESIAN_POINT('',(26.,0.,9.5));
#1657=CARTESIAN_POINT('Origin',(27.,24.5,0.));
#1658=CARTESIAN_POINT('',(49.,44.,0.));
#1659=CARTESIAN_POINT('',(40.5,44.,0.));
#1660=CARTESIAN_POINT('',(49.,12.25,0.));
#1661=CARTESIAN_POINT('Origin',(40.5,44.,5.));
#1662=CARTESIAN_POINT('',(49.,49.,5.));
#1663=CARTESIAN_POINT('',(40.5,49.,5.));
#1664=CARTESIAN_POINT('Origin',(49.,44.,5.));
#1665=CARTESIAN_POINT('Origin',(49.,12.25,5.));
#1666=CARTESIAN_POINT('',(54.,44.,5.));
#1667=CARTESIAN_POINT('Origin',(49.,44.,5.));
#1668=CARTESIAN_POINT('',(54.,12.25,5.));
#1669=CARTESIAN_POINT('Origin',(49.,44.,5.));
#1670=CARTESIAN_POINT('Origin',(49.,44.,5.));
#1671=CARTESIAN_POINT('Origin',(5.,44.,45.));
#1672=CARTESIAN_POINT('',(5.,49.,45.));
#1673=CARTESIAN_POINT('Origin',(5.,44.,45.));
#1674=CARTESIAN_POINT('',(0.,44.,45.));
#1675=CARTESIAN_POINT('Origin',(5.,44.,45.));
#1676=CARTESIAN_POINT('Origin',(5.,44.,45.));
#1677=CARTESIAN_POINT('Origin',(5.,44.,0.));
#1678=CARTESIAN_POINT('',(0.,44.,0.));
#1679=CARTESIAN_POINT('',(5.,49.,0.));
#1680=CARTESIAN_POINT('Origin',(5.,36.75,45.));
#1681=CARTESIAN_POINT('',(0.,36.75,45.));
#1682=CARTESIAN_POINT('Origin',(49.,44.,45.));
#1683=CARTESIAN_POINT('',(54.,44.,45.));
#1684=CARTESIAN_POINT('Origin',(49.,44.,45.));
#1685=CARTESIAN_POINT('',(49.,49.,45.));
#1686=CARTESIAN_POINT('Origin',(49.,44.,45.));
#1687=CARTESIAN_POINT('Origin',(49.,44.,45.));
#1688=CARTESIAN_POINT('Origin',(49.,44.,0.));
#1689=CARTESIAN_POINT('',(49.,49.,0.));
#1690=CARTESIAN_POINT('',(54.,44.,0.));
#1691=CARTESIAN_POINT('Origin',(40.5,44.,45.));
#1692=CARTESIAN_POINT('',(40.5,49.,45.));
#1693=CARTESIAN_POINT('Origin',(49.,12.25,45.));
#1694=CARTESIAN_POINT('',(54.,12.25,45.));
#1695=CARTESIAN_POINT('Origin',(54.,49.,0.));
#1696=CARTESIAN_POINT('',(29.5,49.,20.));
#1697=CARTESIAN_POINT('Origin',(27.,49.,20.));
#1698=CARTESIAN_POINT('Origin',(27.,49.,20.));
#1699=CARTESIAN_POINT('',(29.5,46.,20.));
#1700=CARTESIAN_POINT('',(29.5,49.,20.));
#1701=CARTESIAN_POINT('Origin',(27.,46.,20.));
#1702=CARTESIAN_POINT('Origin',(2.,0.,9.5));
#1703=CARTESIAN_POINT('',(2.,46.,9.5));
#1704=CARTESIAN_POINT('',(2.,0.,9.5));
#1705=CARTESIAN_POINT('',(2.,46.,40.5));
#1706=CARTESIAN_POINT('',(2.,46.,9.5));
#1707=CARTESIAN_POINT('',(2.,0.,40.5));
#1708=CARTESIAN_POINT('Origin',(52.,0.,9.5));
#1709=CARTESIAN_POINT('',(52.,46.,9.5));
#1710=CARTESIAN_POINT('',(52.,0.,9.5));
#1711=CARTESIAN_POINT('',(52.,46.,9.5));
#1712=CARTESIAN_POINT('Origin',(52.,0.,40.5));
#1713=CARTESIAN_POINT('',(52.,46.,40.5));
#1714=CARTESIAN_POINT('',(52.,0.,40.5));
#1715=CARTESIAN_POINT('',(52.,46.,40.5));
#1716=CARTESIAN_POINT('Origin',(2.,0.,40.5));
#1717=CARTESIAN_POINT('',(2.,46.,40.5));
#1718=CARTESIAN_POINT('Origin',(27.,46.,25.));
#1719=CARTESIAN_POINT('Origin',(54.,0.,0.));
#1720=CARTESIAN_POINT('Origin',(0.,49.,0.));
#1721=UNCERTAINTY_MEASURE_WITH_UNIT(LENGTH_MEASURE(0.01),#1725,
'DISTANCE_ACCURACY_VALUE',
'Maximum model space distance between geometric entities at asserted c
onnectivities');
#1722=UNCERTAINTY_MEASURE_WITH_UNIT(LENGTH_MEASURE(0.01),#1725,
'DISTANCE_ACCURACY_VALUE',
'Maximum model space distance between geometric entities at asserted c
onnectivities');
#1723=(
GEOMETRIC_REPRESENTATION_CONTEXT(3)
GLOBAL_UNCERTAINTY_ASSIGNED_CONTEXT((#1721))
GLOBAL_UNIT_ASSIGNED_CONTEXT((#1725,#1726,#1727))
REPRESENTATION_CONTEXT('','3D')
);
#1724=(
GEOMETRIC_REPRESENTATION_CONTEXT(3)
GLOBAL_UNCERTAINTY_ASSIGNED_CONTEXT((#1722))
GLOBAL_UNIT_ASSIGNED_CONTEXT((#1725,#1726,#1727))
REPRESENTATION_CONTEXT('','3D')
);
#1725=(
LENGTH_UNIT()
NAMED_UNIT(*)
SI_UNIT(.MILLI.,.METRE.)
);
#1726=(
NAMED_UNIT(*)
PLANE_ANGLE_UNIT()
SI_UNIT($,.RADIAN.)
);
#1727=(
NAMED_UNIT(*)
SI_UNIT($,.STERADIAN.)
SOLID_ANGLE_UNIT()
);
#1728=SHAPE_DEFINITION_REPRESENTATION(#1729,#1730);
#1729=PRODUCT_DEFINITION_SHAPE('',$,#1732);
#1730=SHAPE_REPRESENTATION('',(#1029),#1723);
#1731=PRODUCT_DEFINITION_CONTEXT('part definition',#1736,'design');
#1732=PRODUCT_DEFINITION('2026-01-25-18-05-55-232','Dasai Mochi Top',#1733,
#1731);
#1733=PRODUCT_DEFINITION_FORMATION('',$,#1738);
#1734=PRODUCT_RELATED_PRODUCT_CATEGORY('Dasai Mochi Top',
'Dasai Mochi Top',(#1738));
#1735=APPLICATION_PROTOCOL_DEFINITION('international standard',
'automotive_design',2009,#1736);
#1736=APPLICATION_CONTEXT(
'Core Data for Automotive Mechanical Design Process');
#1737=PRODUCT_CONTEXT('part definition',#1736,'mechanical');
#1738=PRODUCT('2026-01-25-18-05-55-232','Dasai Mochi Top',$,(#1737));
#1739=PRESENTATION_STYLE_ASSIGNMENT((#1740));
#1740=SURFACE_STYLE_USAGE(.BOTH.,#1741);
#1741=SURFACE_SIDE_STYLE('',(#1742));
#1742=SURFACE_STYLE_FILL_AREA(#1743);
#1743=FILL_AREA_STYLE('Steel - Satin',(#1744));
#1744=FILL_AREA_STYLE_COLOUR('Steel - Satin',#1745);
#1745=COLOUR_RGB('Steel - Satin',0.627450980392157,0.627450980392157,0.627450980392157);
ENDSEC;
END-ISO-10303-21;
